<?xml version="1.0" encoding="UTF-8"?>
<svg id="Layer_2" data-name="Layer 2" xmlns="http://www.w3.org/2000/svg" viewBox="0 0 30.77 30.77">
  <defs>
    <style>
      .cls-1 {
        fill: #ffea5d;
      }

      .cls-2 {
        fill: #b9a358;
      }

      .cls-3 {
        fill: #f8ffeb;
      }

      .cls-4 {
        fill: #f5f2df;
      }

      .cls-5 {
        fill: #799442;
      }
    </style>
  </defs>
  <g id="Layer_1-2" data-name="Layer 1">
    <g>
      <g>
        <circle class="cls-1" cx="15.38" cy="15.38" r="15.38"/>
        <circle class="cls-2" cx="15.38" cy="15.38" r="13.22"/>
        <circle class="cls-1" cx="15.38" cy="15.38" r="10.67"/>
      </g>
      <ellipse class="cls-5" cx="15.39" cy="23.81" rx="14.3" ry="3.28"/>
      <rect class="cls-4" x="3.13" y="5.49" width="24.51" height="18.26" rx=".71" ry=".71"/>
      <g>
        <path class="cls-5" d="M13.78,7.97H4.72c-.14,0-.25-.11-.25-.25s.11-.25.25-.25h9.06c.14,0,.25.11.25.25s-.11.25-.25.25Z"/>
        <path class="cls-5" d="M13.78,9.35H4.72c-.14,0-.25-.11-.25-.25s.11-.25.25-.25h9.06c.14,0,.25.11.25.25s-.11.25-.25.25Z"/>
        <path class="cls-5" d="M8.06,10.75h-3.34c-.14,0-.25-.11-.25-.25s.11-.25.25-.25h3.34c.14,0,.25.11.25.25s-.11.25-.25.25Z"/>
        <path class="cls-5" d="M8.51,15.24h-3.79c-.14,0-.25-.11-.25-.25s.11-.25.25-.25h3.79c.14,0,.25.11.25.25s-.11.25-.25.25Z"/>
        <path class="cls-5" d="M8.51,16.8h-3.79c-.14,0-.25-.11-.25-.25s.11-.25.25-.25h3.79c.14,0,.25.11.25.25s-.11.25-.25.25Z"/>
        <path class="cls-5" d="M8.51,18.46h-3.79c-.14,0-.25-.11-.25-.25s.11-.25.25-.25h3.79c.14,0,.25.11.25.25s-.11.25-.25.25Z"/>
        <path class="cls-5" d="M8.51,20.03h-3.79c-.14,0-.25-.11-.25-.25s.11-.25.25-.25h3.79c.14,0,.25.11.25.25s-.11.25-.25.25Z"/>
        <path class="cls-5" d="M13.71,21.66H4.72c-.14,0-.25-.11-.25-.25s.11-.25.25-.25h8.99c.14,0,.25.11.25.25s-.11.25-.25.25Z"/>
        <path class="cls-5" d="M4.72,12.22c-.14,0-.25-.11-.25-.25s.11-.25.25-.25h9.04c.14-.01.25.1.25.24s-.11.25-.25.25H4.72Z"/>
        <path class="cls-5" d="M4.72,13.73c-.14,0-.25-.11-.25-.25s.11-.25.25-.25h9.04c.14-.01.25.1.25.24s-.11.25-.25.25H4.72Z"/>
        <path class="cls-5" d="M13.18,19.42h-2.96c-.48,0-.87-.39-.87-.87v-2.96c0-.48.39-.87.87-.87h2.96c.48,0,.87.39.87.87v2.96c0,.48-.39.87-.87.87ZM10.23,15.23c-.2,0-.37.16-.37.37v2.96c0,.2.16.37.37.37h2.96c.2,0,.37-.16.37-.37v-2.96c0-.2-.16-.37-.37-.37h-2.96Z"/>
      </g>
      <g>
        <path class="cls-5" d="M25.94,7.97h-8.97c-.14,0-.25-.11-.25-.25s.11-.25.25-.25h8.97c.14,0,.25.11.25.25s-.11.25-.25.25Z"/>
        <path class="cls-5" d="M25.94,9.33h-8.97c-.14,0-.25-.11-.25-.25s.11-.25.25-.25h8.97c.14,0,.25.11.25.25s-.11.25-.25.25Z"/>
        <path class="cls-5" d="M25.96,10.86h-8.97c-.14,0-.25-.11-.25-.25s.11-.25.25-.25h8.97c.14,0,.25.11.25.25s-.11.25-.25.25Z"/>
        <path class="cls-5" d="M20.1,17.56h-3.11c-.14,0-.25-.11-.25-.25s.11-.25.25-.25h3.11c.14,0,.25.11.25.25s-.11.25-.25.25Z"/>
        <path class="cls-5" d="M26.05,19.26h-9.06c-.14,0-.25-.11-.25-.25s.11-.25.25-.25h9.06c.14,0,.25.11.25.25s-.11.25-.25.25Z"/>
        <path class="cls-5" d="M26.05,20.94h-9.06c-.14,0-.25-.11-.25-.25s.11-.25.25-.25h9.06c.14,0,.25.11.25.25s-.11.25-.25.25Z"/>
        <path class="cls-5" d="M25.29,15.9h-7.66c-.48,0-.87-.39-.87-.87v-2.38c0-.48.39-.87.87-.87h7.66c.48,0,.87.39.87.87v2.38c0,.48-.39.87-.87.87ZM17.63,12.29c-.2,0-.37.16-.37.37v2.38c0,.2.17.37.37.37h7.66c.2,0,.37-.16.37-.37v-2.38c0-.2-.17-.37-.37-.37h-7.66Z"/>
      </g>
      <path class="cls-5" d="M25.97,23.08h-.48c-.14,0-.25-.11-.25-.25s.11-.25.25-.25h.48c.14,0,.25.11.25.25s-.11.25-.25.25Z"/>
      <path class="cls-5" d="M13.67,23.08h-.48c-.14,0-.25-.11-.25-.25,0-.14.11-.25.25-.25h.48c.14,0,.25.11.25.25,0,.14-.11.25-.25.25Z"/>
      <rect class="cls-2" x="14.89" y="5" width="1" height="20.43"/>
      <polygon class="cls-3" points="3.82 2.56 4.39 4.85 6.68 5.42 4.39 6 3.82 8.28 3.24 6 .96 5.42 3.24 4.85 3.82 2.56"/>
      <polygon class="cls-3" points="27.27 15.03 27.84 17.31 30.13 17.89 27.84 18.46 27.27 20.75 26.69 18.46 24.41 17.89 26.69 17.31 27.27 15.03"/>
    </g>
  </g>
</svg>