<?xml version="1.0" encoding="UTF-8"?>
<svg id="Layer_2" data-name="Layer 2" xmlns="http://www.w3.org/2000/svg" xmlns:xlink="http://www.w3.org/1999/xlink" viewBox="0 0 637.35 607.68">
  <defs>
    <style>
      .cls-1 {
        fill: #ffea5d;
      }

      .cls-2 {
        fill: #f5f2df;
      }

      .cls-3 {
        fill: #799442;
      }

      .cls-4 {
        fill: url(#linear-gradient);
      }
    </style>
    <linearGradient id="linear-gradient" x1="0" y1="316.21" x2="637.35" y2="316.21" gradientUnits="userSpaceOnUse">
      <stop offset="0" stop-color="#92bf65"/>
      <stop offset="1" stop-color="#bf9f56"/>
    </linearGradient>
  </defs>
  <g id="Layer_1-2" data-name="Layer 1">
    <g>
      <ellipse class="cls-3" cx="318.43" cy="575.51" rx="88.85" ry="32.17"/>
      <path class="cls-4" d="M637.35,211.82c0,.81-.01,1.63-.02,2.44-.02,1.28-.05,2.57-.1,3.85,0,.07-.01.13-.01.19-.03.72-.06,1.45-.1,2.17-.05,1.08-.12,2.16-.2,3.24t0,.02c-.08,1.08-.17,2.15-.27,3.23-.12,1.25-.24,2.51-.39,3.76-.07.61-.14,1.21-.22,1.82-18.43,148.66-227.28,298.89-295.41,344.25-12.94,8.61-29.78,8.63-42.73.04C229.87,531.72,21.72,382.61,1.58,234.57c-.1-.66-.18-1.33-.27-1.99-.05-.43-.1-.86-.15-1.29-.17-1.44-.32-2.89-.46-4.33-.2-2.17-.35-4.33-.47-6.49-.04-.72-.07-1.45-.1-2.17,0-.06,0-.12-.01-.19-.05-1.28-.08-2.57-.1-3.85-.01-.81-.02-1.63-.02-2.44C0,121.99,72.82,49.17,162.65,49.17c33.24,0,64.14,9.96,89.89,27.08,31.45,20.89,55.21,52.43,66.14,89.47,10.92-37.04,34.68-68.58,66.13-89.47,25.75-17.12,56.65-27.08,89.89-27.08,89.83,0,162.65,72.82,162.65,162.65Z"/>
      <g>
        <path class="cls-1" d="M78.94,86.83c9.27,68.51,29.8,151.26,52.2,216.56-9.87.94-19.49,2.41-29.16,4.63-15.37-36.84-28.74-74.4-39.21-112.94-.55.41-.82.62-1.36,1.04,5.84,39.36,14.96,77.98,27.59,115.72-3.95,1.38-5.83,2.13-9.41,3.75-17.17-27.61-33.78-55.64-47.26-85.27-.31.59-.46.88-.75,1.48,9.56,31.02,22.52,60.62,37.65,89.31-5.81,3.89-11.03,8.02-15.44,13.5-20.94-34.22-36.69-71.11-38.99-111.59-.4-19.58,2.26-38.2,9.13-56.57,5.98,22.84,15.64,44.24,26.03,65.37.89-.93,1.35-1.38,2.28-2.29-6.04-30.72-11.69-65.72-13.12-97,10.6-16.74,24.35-36.66,39.83-45.7Z"/>
        <path class="cls-1" d="M187.11,65.04c15.21,78.97,35.33,174.3,52.07,252.96-12.18-4.79-24.55-8.35-37.4-10.82-3.74-13.74-7.43-27.49-11.1-41.25-7.97-.92-15.93-1.56-23.95-1.89,1.83,13.16,3.85,26.28,6.07,39.38-11.87-.83-23.66-1.03-35.55-.47-15.5-70.53-23.98-160.27-23.33-232.47,23.94-6.55,48.48-7.99,73.19-5.45ZM180.28,223.42c-7.84-30.82-15.39-61.7-22.39-92.72-1.86.08-2.78.13-4.62.25,1.5,30.7,4.11,61.31,7.77,91.83,6.42-.03,12.84.16,19.24.64Z"/>
        <path class="cls-1" d="M317.1,199.44c-.05,15.44-.1,30.88-.14,46.31-7.13-13.51-16.57-23.86-28.61-33.18.03-13.49.09-26.97.21-40.46-5.87-4.36-11.92-8.39-18.07-12.34.41,45.64,1.59,91.27,3.37,136.88,5.1,3.09,10.2,6.22,15.07,9.65-.13-10.3-.25-20.6-.34-30.9-3.16-2.26-4.81-3.34-8.25-5.54-.29-13.73-.53-27.46-.72-41.19,15.28,10.12,28.11,21.58,37.29,37.62-.05,25.06-.09,50.13-.12,75.19-6.38,3.2-12.07,7.74-17.72,12.04-10.62-8.34-22.05-15.13-33.56-22.16-8.4-15.32-17.29-30.24-27.07-44.72-5.45-53.48-9.66-107.06-12.16-160.76,9.54-6.65,18.85-13.46,28.84-19.45,15.58,10.27,31.73,19.74,44.92,33.11,7.11,19.58,12.63,39.53,17.07,59.87Z"/>
        <path class="cls-1" d="M359.19,121.59c.69,73.2-.51,146.4-2.96,219.56-10.13,6.42-19.61,13.59-28.49,21.67-.18-69.3,4.05-134.96,3.11-204.25,8.43-14.12,14.96-27.65,28.34-36.98Z"/>
        <path class="cls-1" d="M496.99,117.22c-2.28,17.55-4.86,35.04-7.72,52.51-15.6-1.06-31.07-.8-46.57,1.32,1.57-14.84,3-29.69,4.28-44.56-7.18,1.05-14.19,2.44-21.22,4.25-3.05,47.35-7.54,94.57-13.13,141.69,5.78-1.86,11.66-3.47,17.6-4.72,2.66-17.93,5.16-35.88,7.46-53.87,14.67-2.36,29.35-3.12,44.19-2.79-3.97,20.53-8.29,40.98-12.91,61.38-11.42,11.19-22.35,22.79-32.91,34.8-13.52,2.57-26.48,6.36-39.24,11.53-7.05-6.91-14.32-13.43-22.02-19.6,3.19-52.66,5.47-105.36,6.5-158.11,7.17-21.37,16.62-44.62,27.34-60.69,18.16-6.75,37.57-13.92,56.94-14.3,10.58,11.62,21.77,38.76,31.42,51.16Z"/>
        <path class="cls-1" d="M606.8,152.38c-8.17,56.41-28.14,110.43-52.44,161.75-7.47-3.05-15.17-5.18-23.02-7,5.37-32.63,7.97-65.49,8.34-98.55-8.56,32.14-18.5,63.86-29.52,95.25-11.07-1.01-22.07-1.3-33.18-1.01,19.45-70.46,36.56-152.14,44.65-224.86,12.72,3.73,24.05,10.62,35.69,16.96,3.62,35.96,4.76,79.94,3.51,116.07,8.46-29.95,15.51-60.24,19.99-91.05,10.38,9.62,18.89,20.19,25.98,32.44Z"/>
        <path class="cls-1" d="M622.55,223.19c-2.29,40.39-18.02,77.28-38.87,111.45-4.77-6.06-10.73-10.51-17.2-14.57,23.73-45.79,42.98-94.47,49.73-145.88,4.86,16.09,6.73,32.21,6.34,49Z"/>
        <path class="cls-1" d="M159.37,314.26c13.9,65.86,33.65,130.19,58.99,192.55-11.69-9.27-34.97-29.27-46.31-38.96-34.81-50.71-66.73-84.59-99.74-136.51,12.26-6.47,25.46-11.72,34.51-13.61,22.59,45.32,46.93,89.72,71.66,133.9.65.35.98.52,1.63.86-21.27-44.6-39.74-90.39-55-137.39,11.44-.99,22.8-1.21,34.28-.84Z"/>
        <path class="cls-1" d="M205.53,319.85c11.49,58.88,24.86,117.35,39.39,175.55,6.74,3.79,13.45,7.64,20.07,11.63,2.18,13.19,4.39,26.37,6.64,39.54-12.52-8.86-24.88-17.93-37.1-27.21-24.63-67.4-47.37-135.46-66.58-204.61,12.64,1.01,25.12,2.73,37.58,5.1Z"/>
        <path class="cls-1" d="M319.14,411.19c.02,44.62.05,89.24.07,133.86-4.91,7.77-10.06,15.38-15.14,23.04-6.02-3.34-11.61-7.15-17.3-11.01-4.53-12.72-9.53-25.23-14.97-37.58-7.31-51.06-14.06-102.19-19.92-153.44,5.66-7.06,11.38-14.07,18.05-20.21,10.89,6.58,21.4,13.25,31.41,21.13,6.19,14.55,11.05,29.95,17.81,44.21ZM293.17,399.6c-3.54-2.44-7.11-4.75-10.76-7.03,1.99,43.34,4.36,86.65,6.97,129.96,2.89,1.87,4.27,2.76,6.87,4.52-1.22-42.48-2.28-84.96-3.08-127.44Z"/>
        <path class="cls-1" d="M401.58,359.39c-2.53,16.99-5.16,33.96-7.9,50.92-9.55,4.23-18.85,8.89-27.74,14.39,1.17-13.51,2.29-27.02,3.37-40.54-4.47,2.75-8.97,5.46-13.44,8.2-2,43.41-4.37,86.8-6.98,130.17,3.2-2.07,4.98-3.22,8.41-5.47,1-10.07,1.99-20.14,2.96-30.21-2.08,1.33-3.22,2.06-5.29,3.37.99-13.24,1.95-26.49,2.89-39.73,10.47-6.49,21-12.52,32.15-17.77-4.54,27.03-9.3,54.02-14.25,80.98-6.15,12.61-11.82,25.4-17,38.44-5.41,3.75-10.84,7.47-16.31,11.14-3.01-8.22-8.05-13.99-13.39-20.84.2-46.74.33-93.47.33-140.21,6.07-14.72,12.38-29.35,18.65-43.99,11.11-7.54,22.8-14.58,34.62-20.94,6.64,7.11,12.91,14.45,18.93,22.09Z"/>
        <path class="cls-1" d="M460.76,315.63c-18.02,70.13-39.41,139.3-62.58,207.88-6.59,4.96-13.21,9.87-19.88,14.73,16.64-71.69,31.9-143.68,44.52-216.19,12.51-2.99,25.16-5,37.94-6.42Z"/>
        <path class="cls-1" d="M541.72,346.13c-6.58,12.11-13.39,24.07-20.42,35.92-8.52.83-16.99,1.89-25.46,3.13,5.52-11.46,10.92-22.98,16.17-34.56-4.27-.05-8.52-.02-12.79.06-15.92,38.61-33.31,76.57-51.71,114.06,3.52-2.05,7.02-4.11,10.52-6.19,7.31-13.46,14.47-26.99,21.48-40.61,8.22-2.72,23.88-5.19,32.11-7.88-8.7,13.62-17.24,26.84-26.38,40.17-10.21,10.82-25.36,22.3-37.3,33.48-7.76,6.54-15.58,12.99-23.49,19.35-1.39-5.33-3-10.59-4.7-15.83,18.04-47.17,34.97-94.75,50.19-142.91,10.27-10.37,20.87-20.34,31.9-29.9,11.48.69,22.74,2.07,33.99,4.47,2.31,9.01,4.35,18.06,5.89,27.24Z"/>
      </g>
      <polygon class="cls-2" points="520.13 0 540.68 55.55 596.23 76.1 540.68 96.66 520.13 152.21 499.57 96.66 444.02 76.1 499.57 55.55 520.13 0"/>
      <polygon class="cls-2" points="108.04 381.45 128.6 437 184.15 457.55 128.6 478.11 108.04 533.65 87.49 478.11 31.94 457.55 87.49 437 108.04 381.45"/>
    </g>
  </g>
</svg>