<?xml version="1.0" encoding="UTF-8"?>
<svg id="Layer_2" data-name="Layer 2" xmlns="http://www.w3.org/2000/svg" viewBox="0 0 740.5 487.32">
  <defs>
    <style>
      .cls-1 {
        fill: #c4a7e6;
      }

      .cls-1, .cls-2, .cls-3, .cls-4, .cls-5, .cls-6, .cls-7, .cls-8 {
        stroke: #d634d6;
        stroke-linecap: round;
        stroke-linejoin: round;
        stroke-width: .5px;
      }

      .cls-2 {
        fill: #d2ddfb;
      }

      .cls-3 {
        fill: #b6c8f8;
      }

      .cls-4 {
        fill: #b1c4f8;
      }

      .cls-5 {
        fill: #e2e9fc;
      }

      .cls-6 {
        fill: #b089de;
      }

      .cls-7 {
        fill: #bdcdf9;
      }

      .cls-8 {
        fill: #caa2f9;
      }
    </style>
  </defs>
  <g id="Slovenia">
    <g>
      <path class="cls-5" d="M699.13,109.57l-.15-.05-1.13-.4-1.46-1.21,1.38-2.64,2.29-.09,1.49-.31,3.95-1.8,3.68-2.41,1.53-1.62,1.86-1.16-4.48-7.36-7.19-5.3,4.49-6.44,1.17-.68.07-.04.97,2.47,4.27,3.44,8.38,4.99,8.67,13.52,7.92,6.77,3.4,14.67-5.68-4.57-2.31-1.32-2.48-.42-5.1.65-2.04-.23-1.97-1.42-3.96-4.2-2.09-1.34-2.67-.21-2.99.25-2.99-.4-2.72-2.18-1.46,2.55-.1-.15-1.67-2.4-.91,1.07Z"/>
      <path class="cls-3" d="M699.13,109.57l-2.42,2.85-4.54,1.52-4.35-1.28-2.48-4.26-1.64.93-.67.6-.9,1.01-3.27-2.6-1.54-2.19,4.33-5.21,3.17-2.51,1.78-.57,3-3.84.17-2.69,6.57,4.6,1.42,2.11.8,4.7-.8,2.5-1.38,2.64,1.46,1.21,1.13.4.15.05Z"/>
      <path class="cls-1" d="M692.18,113.94l-2.15,1.33-5.62-2.31-4.22,4.95.28,1.76.03.2-6.11,6.88-.17,2.87-.12.06-.62.32-.95.86-.62,1.15-.58.83-1.2.29-1.49-.55-.91.93-.62.18-.47-.18-2.4-3.58-1.94-1.84-2.99-2.16-3.53.85-.73,1.23-1.13.39-2.62-.25-5.37-2.27-10.83-1.94-3.79-1.6-7.32-1.7,1.46-3.49.04-1.09.36-1.23-.33-.86.33-.81,1.42-2,1.57-1.1,1.09-.99,7.55,1.16,4.7.97,5.75,3.4,4.82,1.08,2.66.14,2.8-.79,1.09-.85.76-.91.25-.95.26-2.1.25-1.06.29-.86.07-.83-.69-.7-.44-.69.66-2.04,3.22-2.15,1.02-.11,1.64.05.58-.49,2.95-5.51,7.22,10.31,1.54,2.19,3.27,2.6.9-1.01.67-.6,1.64-.93,2.48,4.26,4.35,1.28Z"/>
      <path class="cls-6" d="M690.03,115.27l-1.45.9-7.38,2.9-.71.8-.03-.2-.28-1.76,4.22-4.95,5.62,2.31Z"/>
      <path class="cls-6" d="M674.21,129.62l-.12,2.09.9,4.65,2.79,9.36.17,2.75-.44,5.47.63,2.83,1.43,1.73,4.01,2.65,1.09,1.61.28,2.95.08.83-1.09,1.03-5.37-.09-8.38,2.06-1.99.09-3.96-.91-3.35-1.97-5.63-5.38-2.28-1.11-2.89.56-1.97,2.1-1.8,2.58-2.23,1.89-2.74.5-1.34-.28-3.03-3.86-2.31-6.67-3.61-7.06-5.75-2.53,3.06-5.76.22-6.59-4.48-7.5-1.61-5.73,1.47-1.27,7.32,1.7,3.79,1.6,10.83,1.94,5.37,2.27,2.62.25,1.13-.39.73-1.23,3.53-.85,2.99,2.16,1.94,1.84,2.4,3.58.47.18.62-.18.91-.93,1.49.55,1.2-.29.58-.83.62-1.15.95-.86.62-.32.12-.06Z"/>
      <path class="cls-8" d="M640.02,167.61l-7.21-1.51-.12,6.07.53,4.86-.02,4.41-1.7,4.65-.58.63-.05-.18-1.65-5.75-.47-3.89-.58-1.91-.87-.91-.73-1.46.04-1.96,2.15-5.25,3.42-2.88,4.82,1.23,3.03,3.86Z"/>
      <path class="cls-4" d="M630.92,186.72l-2.58,2.81-4.64,3.26-4.88,2.47-1.12.31-.06-.09-1.01-1.51-3.28-10.98.22-2.63-.66-2.31-.55-1.44-.87-.9.47-4.31,1.89-.11,1.93-.7.76-.53,2.26-2.44-.07-1.03-.33-1.75-1.89-4.25-.18-3-1.13-4.77,1.93-3.02.98-1.11,3.86-2.08,3.33.9,5.75,2.53,3.61,7.06,2.31,6.67-4.82-1.23-3.42,2.88-2.15,5.25-.04,1.96.73,1.46.87.91.58,1.91.47,3.89,1.65,5.75.05.18Z"/>
      <path class="cls-5" d="M617.71,195.58l-2.74.77-7.82,1.4-7,3.85-.04-.13-.08-.32-.47-2.99.07-.6.15-.72.29-.54-.18-.86v-.95l.15-.91.07-.98-.15-1.02-.87-2.11-.58-1.1-.4-1.24-.18-1.31.18-1.14.51-.88.29-.81-.04-1.54-.15-.88-.55-1.13-1-.94-1.35-.85-3.9-1.71-.95-.67-2.59-.39-.95-.02-1.24.47-1.31.25-1.76.68-1.02.19-1.13.58-1.31,1.97-.8,1.92.15,2.16-.91,6.4-5.65-4.1,2.88-6.22-.4-1.17-.66-.84-1.49-3.42,3.82-1.42.58-2.35.8-1.87,1.6-7.89,4.41,4.39,4.53-.73,6.3-4.36,1.82,1.11,5.73,2.28,1.57,1.18.29.9,1.46,3.79,2.04,1.26,4.24,1.34-.47,4.31.87.9.55,1.44.66,2.31-.22,2.63,3.28,10.98,1.01,1.51.06.09Z"/>
      <path class="cls-7" d="M600.15,201.6l-8.27,4.55-.66.02-.05-.09-1.31-2.17-1.93-5.34-1.13-.7-8.68-8.35.91-6.4-.15-2.16.8-1.92,1.31-1.97,1.13-.58,1.02-.19,1.76-.68,1.31-.25,1.24-.47.95.02,2.59.39.95.67,3.9,1.71,1.35.85,1,.94.55,1.13.15.88.04,1.54-.29.81-.51.88-.18,1.14.18,1.31.4,1.24.58,1.1.87,2.11.15,1.02-.07.98-.15.91v.95l.18.86-.29.54-.15.72-.07.6.47,2.99.08.32.04.13Z"/>
      <path class="cls-4" d="M591.22,206.17h-.37s-10.6.33-10.6.33l-3.74.96-3.57,1.7-.84.64-.14-.07-9.63-4.48.91-8.04,2.62-4.06,6.6-7.74,5.65,4.1,8.68,8.35,1.13.7,1.93,5.34,1.31,2.17.05.09Z"/>
      <path class="cls-5" d="M572.1,209.81l-2.44,1.87-4.76,8.03-4.49,2.9-16.87-1.25v-.08s.08-1.79.08-1.79l3.18-5.87,2.26-1.47,1.64-3.39,1.86-1.76,1.27-.83,4.6-2.28,3.9,1.37,9.63,4.48.14.07Z"/>
      <path class="cls-4" d="M543.55,221.37l-3.92-.29-5.05,2.59-3.11,4.22-.11-.11-3.01-2.95-1.46-5.32-.73-.89-1.68-.96-2.59-3.57-4.71-12.76,1.31-1.86,1.32-.88,2.55-.77,4.95.07,10.36,3.45,7.48-.14,4.44,3.35,8.83-.64-4.6,2.28-1.27.83-1.86,1.76-1.64,3.39-2.26,1.47-3.18,5.87-.07,1.79v.08Z"/>
      <path class="cls-1" d="M531.47,227.88l-.87,1.19-4.35,8.35-3.37,9.57-.02,8.5,3.28,7.61,4.64,4.92-.02.02-3.75,3.54-2-1.1-.87-3.24.22-1.24.73-1.22-3.46-7.62-2.11-1.16-3.91-3.36-2.91-.63-2.48-2.21,2.22-8.38,5.17-3.23,2.63-4.9,8.12-8.47,3.01,2.95.11.11Z"/>
      <path class="cls-4" d="M530.77,268.02l1.86,1.97,2.86,1.71,6.58,2.74,2.86,2.11,2.1,3.21-.06.02-1.89.54-3.95,4.58-1.06-1.95-5.79-.03-1.75-.64-1.65-1.22-1.06-1.03-2.84-8.44,3.75-3.54.02-.02Z"/>
      <path class="cls-1" d="M547.05,279.76l1.2,1.83-1.02,3.52-2.74,4.13-1.8,6.81-.02.05.27,6.97.41,10.34-.36,5.6-1.21,4.21-1.65,3.98-.92,4.03,1,4.29,2.77,6.76.15,4.79-2.36,3.37-4.81,2.54-4.59,1.32-9.1.33-8.82-1.5-.04-.08-1.14-2.14-5.17-7.56-1.13-2.62-1.18-2.13-.73-2.43.07-2.69,1.21-4,3.5-2.19,2.73-.99,1.06.07.98-.92,1.42-.73.58-2.87,1.86-1.15.69-2.07.56-3.51-.19-11.96,2.89-7.33,3.28-.16,6.15-3.12,10.32-7.65,3.95-4.58,1.89-.54.06-.02Z"/>
      <path class="cls-5" d="M513.42,353.13l-6.16-1.05-2.26,1.15-4.37,3.61-2.33.83-2.7-.47-2.67-.89-2.65-.31-2.57,1.23-1.12,3.14.92,3.51.36,3.19-2.65,2.17-.09-.09-1.26-1.3-5.39-10.1-.34-4.58-.66-4.01-.29-7.3-1.75-6.52-6.37-2.41-2.44-2.68.62-2.63.22-5.7,2.08-6.17,2-5.5,4.22-6.25,8.13-8.2,1.24-2.24.11-2.14-.47-1.9-1.24-1.78-.84-2.67-.55-2.47v-2.91l.66-1.57.18-1.18-.44-4.52,17.42-1.47,5.84,2.63,1.75.21,3.02,2.23,2.51,2.88,2.59,9.11,1.06,4.21.18,1.57.91.75,3.54,1.27-2.89,7.33.19,11.96-.56,3.51-.69,2.07-1.86,1.15-.58,2.87-1.42.73-.98.92-1.06-.07-2.73.99-3.5,2.19-1.21,4-.07,2.69.73,2.43,1.18,2.13,1.13,2.62,5.17,7.56,1.14,2.14.04.08Z"/>
      <path class="cls-7" d="M485.24,369.26l-.16.13-23.03,7.66-.02-.13-.16-.85v-.04l-2.29-9.04-5.46-8.37-4.24-4.36-1.24-3.21-.62-4.02,1.2-2.88,1.06-1.78,5.37-2.93,6.05-3.45,2.48,1.31.33.78.58.06.96-.52,1.82-1.43,1.24-3.24,6.37,2.41,1.75,6.52.29,7.3.66,4.01.34,4.58,5.39,10.1,1.26,1.3.09.09Z"/>
      <path class="cls-5" d="M462.04,377.04l-6.4,2.13-9.47,5.29-1.99,2.32-1.2,3.26-.21.15-4.9,3.53-8.78,6.13-1.46.4-3.07.29-3.61-.29-7.03.45-5.51-.84.69-2.8,1.68-1.09.73-.33.58-.53.38-.63.44-.64.51-1.49-.7-1.65-1.6-2.23-7.9-8.65-.29-1.67-.76-1.73-3.11-4.72-1.13-4.27,6.57-8.42,2.4-1.35,1.17-1.74,1.89-.52.8-1.17.58-1.13.73-1.79.33-1.13.09-1.2-.09-.96-.25-1.27.36-.42.44-.07.78.08.8-.41,1.53-1.39,2.26-8.13,9.37,1.96,2.77-.8,3.13-1.33,1.86-1.96,2.59-5.44-.11-1.58-.33-1.44.11-1.44,2.63-5.14,7.03,5.87,2.15,1.03,2.55,1.79,2.27,2.71,1.17,1.73.69,1.37-1.02,2.14.47,3.5-5.37,2.93-1.06,1.78-1.2,2.88.62,4.02,1.24,3.21,4.24,4.36,5.46,8.37,2.29,9.04v.04l.16.85.02.13Z"/>
      <path class="cls-6" d="M442.99,390.04l-.23.64.46,1.4,1.72.85,2.26,2.23,2.33,4.5,1.24,1.65,2.09,1.52,3.06,1.14.97-.68.32-1.35,1.07-.9,2.84-.76.87-.47.73.64,3.8,4.36.45.52,3.84,6.37,1.29,2.96-4.86-.03-3.28,1.14-2.91,1.56-6.9,2.2-1.36,2.49-.87,2.65-1.6,1.4-2.94,1.5.24,2.75,1.68,3.6,1.28,3.75-.13-.15-.35-.41-2.19-1.02-2.22-2.06-1.27-2.28-.73-1.68.07-.86-.98-.47-2.33.61-3.62-1.19.33-2.78,2.04-.03.59-.1.62-.44.69-.24.58-.74,1.06-.64,1.02-1.12,1.35-1.14.66-1.35.76-2.42.76-1.09.87-.6,1.71-.22,1.02-1.63.18-2.25-2.29-4.38-2.33-3.29-3.2-2.77-3.02-6.57-.4-.55-1.94-.07,4.9-3.53.21-.15Z"/>
      <path class="cls-7" d="M305.27,438.12l3.97-2.02,10.12-6.94,1.51,7.1.84,1.3-.07,1.56-.4.64.33,1.24,1.46,2.7,3.97,2.88,9.34,8.71,4.99,5.9,3.31.52,1.02-.67.69-.91,1.18-3.11.55-2.18.62-1.3,2.29-1.87,1.49-.46,1.35.29,3.5,2.06,3.87.92,2.84-.2,3.75-1.15,1.89-.3,1.42.3,5.04,4.64,2.79,6.54.03.07-3.46-.47-4.05-3.8-5.34-3.49-4.27.17-.85,7.11-4.52,7.8-10.05,3.61-9.78-2.07-3.69-9.34-.02-.02-.02-.05h-.02l-21.8-9.58-4.66-3.99-.07-1.73.83-5.91-.44-2.59-1.36-1.83-.09-.05Z"/>
      <path class="cls-2" d="M305.27,438.12l-1.49-.87-1.65-.69-8.06-6.43-3.03-3.18-2.16-4.22-.22-4.52.27-6.14-.51-5.14-2.57-1.49-2.78,1.19-.03-.13-.17-.68-2.26-4.9-.45-3.65-4.52-14.16,2.95-1.29,1.31,1.2,4.82-.22,5.35,1.94,4.86.22,2.37,1.45,1.17,1.4,2.73,4.32,4.92,6.06,2.2,2.11,7.39,2.53,2.95,1.94,2.49.82.44,1.04.51,1.58-.15,1.32.15,1.14-.8,1.73-1.21,3.08-3.68,3.24,2.99,10.42-10.12,6.94-3.97,2.02Z"/>
      <path class="cls-1" d="M283.05,406.63l-1.22.52-1.82,2.01-2.94,6.78-2.48,3.6-5.92,6.64-2.19,3.23-1.48,4.27-.18,1.42-.11-.05-.68-.3-1.75.12-1.57-.19-1.42.5-1.78-.41-2.59.12-2.45-.31-.18-.75,1.24-1.56.11-2.34-.62-1.8-3.1-2.9-1.46-2.75.15-2.35.87-6.74-.11-5.89-2.15-3.06-5.46-6.22-1.69-6.1,5.73-.87,15.93-12.67,7,5.62,4.01.74,1.02-.44,1.86-1.4,4.52,14.16.45,3.65,2.26,4.9.17.68.03.13Z"/>
      <path class="cls-5" d="M264.82,435.12l-.96,7.55-1.24,4.73-3.11,5.63-9.2,6.75-4.35,4.07-9.03,5.13-10.8.98-10.9-2.07-9.35-4.09-5.15-1.28-6.02,1.76-11.17,5.23-6.07,1.12-.56-.03h-.13s.01-.08.01-.08l.3-2.11.04-4.1-1.43-3.19-1.09-1.14-4.3-3.51-.47-.91,1.71-4.4,1.93-6.43.51-3.32.18-1.88-1.42-.91-1.38.41-.76-.92-.22-1.5.98-3.97,1.27-2.52.73-2.47.55-1.09-3.46-3.14.18-3.4,2.88.48,1.75-1.07,4.05-1.47,5.72-.35,9.92.64,5.06-.61,2.6-.67,2.62-2.46,2.04-1.16,9.15-3.65,7.39-1.49,2.66-1.47.58-1.25-.55-1.02.98-.42,3.44-.1,5.14,4.19,2.22,2.58,11.19,2.67-.87,6.74-.15,2.35,1.46,2.75,3.1,2.9.62,1.8-.11,2.34-1.24,1.56.18.75,2.45.31,2.59-.12,1.78.41,1.42-.5,1.57.19,1.75-.12.68.3.11.05Z"/>
      <path class="cls-5" d="M450.57,437.68l.1.3,1.41,8.71,1.89,7.22,3.37,5.7,11.82,7.97-2.26,1.97-4.2,5.88-2.04,1.9-2.62.78-7.62-.16-13.09,4.85-9.78,3.62-10.56-1.48-17.18-14.65,2.05-5.02,2.77-3.42,1.46-1.09,2.55-1.32,3.39-.79.74-.97-.12-1.62-1.82-1.28-2.7.29-2.59,1-2.55.64-1.57-.85-.76-1.93.8-3.8,2.04-2.75,1.17-.64.76-.69.91.09.76.41.8-.39v-1.52l-2.73-2.64-1.27-1.69.04-3.73-1.09-3.09.22-1.97-1.49-4.04,7.47,2.49,6.53-.61,1.89-.67,1.13-.78.33-.73.76-1.18,1.2-1.39,4.26-2.31,3.44.14,4.26.81,4.3,2.11-.33,2.78,3.62,1.19,2.33-.61.98.47-.07.86.73,1.68,1.27,2.28,2.22,2.06,2.19,1.02.35.41.13.15Z"/>
      <path class="cls-6" d="M399.81,470.29l-2.34-2-11.46-.31-2.33-2.12-2.62-1.23-2.1-.29-.03-.07-2.79-6.54-5.04-4.64-1.42-.3-1.89.3-3.75,1.15-2.84.2-3.87-.92-3.5-2.06-1.35-.29-1.49.46-2.29,1.87-.62,1.3-.55,2.18-1.18,3.11-.69.91-1.02.67-3.31-.52-4.99-5.9-9.34-8.71-3.97-2.88-1.46-2.7-.33-1.24.4-.64.07-1.56-.84-1.3-1.51-7.1-2.99-10.42,3.68-3.24,1.21-3.08,5.39,2.49,3.75-.78,1.68-2.28,2.45-4.95.26-3.57,7.76-18.02-6.23-5.11,4.19-4.89,3.1.02,2.08-.98,2.53.32,3.75,1.32,1.71,1.14,1.71,2.79,4.41-.4,7.19-8.08,3.02-.79,10.06,1.76.36,5.75-.8,2.59-1.93,10.02,1.09,2.91,1.06,2.11,4.41,4.96,4.75,5.62,1.06,5.87,3.06,5.42,4.41,8.2,4.05,1.63,1.49,4.04-.22,1.97,1.09,3.09-.04,3.73,1.27,1.69,2.73,2.64v1.52l-.8.39-.76-.41-.91-.09-.76.69-1.17.64-2.04,2.75-.8,3.8.76,1.93,1.57.85,2.55-.64,2.59-1,2.7-.29,1.82,1.28.12,1.62-.74.97-3.39.79-2.55,1.32-1.46,1.09-2.77,3.42-2.05,5.02Z"/>
      <path class="cls-1" d="M176.79,470.6l-5.6-.31-6.17-2.12-5.9-4.31-3.11-3.16-3.37-1.78-6.22-1.32-.02-.06-.84-2.5-7.43-8.83-9.81-2.03-3.71-2.59-2.31-2.65-1.13-1.59-2.22-8.37-.62-1.57,4.49-5.56,1.8-4.38-.25-.64,3.58-3.36,6.92.38,2.93,2.23,4.84.97,3.82,1.99,4.35,3.13,4.41,2.13,3.46,3.01,4.67.95,1.6-.47,1.31-.86,1.24-2.11,2.95-1.41,3.46,3.14-.55,1.09-.73,2.47-1.27,2.52-.98,3.97.22,1.5.76.92,1.38-.41,1.42.91-.18,1.88-.51,3.32-1.93,6.43-1.71,4.4.47.91,4.3,3.51,1.09,1.14,1.43,3.19-.04,4.1-.3,2.11v.07Z"/>
      <path class="cls-4" d="M146.42,457.6l-3.66-.77-1.63,1.09-.83,2.37v3.59l4.98,5.95-3.01,4.12-11,4.67-3.42,3.36-2.06,3.22-2.5,1.86-12.55-1.83-3.69-1.17-3.13-3.17-11.1-7.02-23.33,1.07v-.08s.34-2.09.34-2.09l1.09-.78.22-.09.91-.72.36-.99.55-1.11.69-1.79,2.59-2.66,1.06-1.51-.4-.8-.4-.55-6.35-2.52,2.71-4.58.2-8.04,18.28-2.72v-2.07l-2.49-3.58-3.52-3.82-3.67-4.02,11.58-1.01,9.27,5.01,11.1-1.14,4.74-5.86.62,1.57,2.22,8.37,1.13,1.59,2.31,2.65,3.71,2.59,9.81,2.03,7.43,8.83.84,2.5.02.06Z"/>
      <path class="cls-8" d="M52.93,465.31l.5-1.43-.59-2.84,1.61-3.44v-2.08l-2.29-.45-1.78-1.31-1.38-2.2-.97-3.1,4.93,1.16,5.01-.75.12,1.5,1.2,2.68.47,1.31.07,2,.76,2.96,1.53,1.53,1.13.85,1.46,2.15.07.75.4.47,1.17.47,1.78-.83.76-.5,1.24-4.95,6.35,2.52.4.55.4.8-1.06,1.51-2.59,2.66-.69,1.79-.55,1.11-.36.99-.91.72-.22.09-1.09.78-.33,2.09v.08s-7.28.33-7.28.33l-9.28-9.97Z"/>
      <path class="cls-4" d="M689.55,29.15l-.31,1.27.53,1.27,3.23,9.83,2.67,3.43,2.02,3.94,2.19,2.59,3.25-.56.07,5.74,1.83.78-.34.65-1.81,3.45-1.07-.42-2.58-1.01-1.53,1.75-1.6,2.59-2.33,5.26-.73,5.33-3.87-.93-3.39-2.77-1.64-.46-1.86,1.97-6.53-.71-3.5-.65-5.24-2.72-1.27-1.17-1.42-1.75-.11-2.53-3.03-6.17-.73-7.22.62-.74,1.42-2.14,1.36-.04,4.81-6.07,1.71.21,1.38-.85,1.97-3.5,2-1.8,4.02-6.04,7.68,1.01,1.38-.37.56-.34.18-.11Z"/>
      <path class="cls-6" d="M692.28,22.99l-2.09,3.59-.63,2.57-.18.11-.56.34-1.38.37-7.68-1.01.62-2.62.66-1.27.76-3.61-.26-2.62-1.53-2.85-3.36-3.38-3.97-2.24-11.31-8.27,21.74-1.88,2.4,1.38,3.56,4.42v.08s.12.86.12.86l1.21,2.98v4.54l-.45,1.94-1.24,2.23.22,1.08.33,1.03,2.9,2.13.13.09Z"/>
      <path class="cls-5" d="M689.06,6.05l1.05,1.31,2.06,1.1,3.45.19,1.04,1.72-.53,3.06-1.34,4.17-1.63,3.85-.89,1.53-.13-.09-2.9-2.13-.33-1.03-.22-1.08,1.24-2.23.45-1.94v-4.54l-1.21-2.98-.11-.86v-.08Z"/>
      <path class="cls-3" d="M661.36,2.13l11.31,8.27,3.97,2.24,3.36,3.38,1.53,2.85.26,2.62-.76,3.61-.66,1.27-.62,2.62-4.02,6.04-2,1.8-1.97,3.5-1.38.85-1.71-.21-3.13-4.22-.91-1.68,2.48-6.71-.47-2.87-.95-1.14-1.6-.81-1.72-.54-4.52-4.41-.87-2.55-1.46-1.49-1.06-1.47-3.2-.99-2.63-1.22-.55-3.55,1.73-4.57,1.21.29,10.36-.9Z"/>
      <path class="cls-6" d="M641.29.66l8.51,2.08-1.73,4.57.55,3.55-6.19.32-1.6.64-3.35,2.64-1.25,1.27-3.86.94-.72-10.27,9.66-5.72Z"/>
      <path class="cls-8" d="M713.78,68.91l-1.4,1.35-4.47,2.14-2.16,3.37.89,2.27-.07.04-1.17.68-4.49,6.44-7.87-10.16.73-5.33,2.33-5.26,1.6-2.59,1.53-1.75,2.58,1.01,1.07.42,1.8,3.36,2.19,1.65,4.55,1.94,2.19.39.17.03Z"/>
      <path class="cls-5" d="M705.23,57.53l1.23.53,4.37.26,3.52,2.36,1.29,6.45-1.85,1.79-.17-.03-2.19-.39-4.55-1.94-2.19-1.65-1.8-3.36,1.81-3.45.34-.65.2.08Z"/>
      <path class="cls-8" d="M75.56,136.71l.61-1.26.34-8.7,1.31-1.8.87-2.11.44-2.4-.02-2.67,3.56.3,15.51,3.77,3.2-.04,15.25-2.51,7.09,1.18,21.49,10.16,3.86.47,3.8-.68-.15,4.61-.47,2.84-1.78,1.76-1.17.86-1.72,2.76-3.02.88-1.68,2.05-2.8,1.4-3.1,2.16-6.86,6.19-16.47,8.92-1.46-.32-4.13-5.25-.76-1.24-.84-2.13-1.42-1.84-2.95-2.37-7.37-4.46-3.86-1.74-2.95-.7-6.06,2.72-2.4.69-2.44.31-1.17-.83.76-7.55-1.03-3.43Z"/>
      <path class="cls-7" d="M75.56,136.71l1.03,3.43-.76,7.55,1.17.83,2.44-.31,2.4-.69,6.06-2.72,2.95.7,3.86,1.74,7.37,4.46,2.95,2.37,1.42,1.84.84,2.13.76,1.24,4.13,5.25-3.22,4.45-15.02,8.14-3.42,3.33-1.71,3.14-3.5,8.25-13.12,2.29-4.71-.47-5.17-1.44-10.57.32-8.06-.82-4.15,1.37-1.49,1.23.8,1.16.18,1.61-.69,1.6-2.84,1.44-8.97-1.29-6.59-2.1-3.84-1.8-3.2-.99-3.53-2.63-1.96-1.19,3.33-5.72,3.16-7.2,2.55-3.06,3.11-.33,2.91-1.42,5.63-4.11,10.88-5.83,5.73-5.98,5-7.04,5.75-5.43,7.96-1.04,5.8.2,4.39-2.36,1.96-4.07Z"/>
      <path class="cls-4" d="M7.39,190.12l1.96,1.19,3.53,2.63,3.2.99,3.84,1.8,6.59,2.1,8.97,1.29,2.84-1.44.69-1.6-.18-1.61-.8-1.16,1.49-1.23,4.15-1.37,8.06.82,10.57-.32,5.17,1.44,4.71.47,13.12-2.29,2.19,5.27-2.37.07-1.83.5-2.29,2.39-1.64,2.91-1.6,6.2-.66,4.01-1.68,1.58-4.22.13-1.83.45-2.66,1.82-1.06.45-.95-.13-1.27-.58-1.17,1.15-1.24,1.79-.47,2.92.18,2.01v1.31l3.31,3.18-2.2,3.11-.04.05-3.16-.61-6.92.75-5.97-.94-7.07-7.01-4.42-3.1-6.56-1.33-3.28-1.87-7.04-.49-3.64-1.26,3.42,5.98-6.41,1-1.99-2.94-.83-4.69-3.11-4.27-.02-.04-.02-.04-1.43-8.49-1.31-4.03-1.82-3.4,6.12-3.82,1.02-1.75Z"/>
      <path class="cls-1" d="M65.04,235.93l-.87-3.04-2.35-.46.04-.05,2.2-3.11-3.31-3.18v-1.31l-.18-2.01.47-2.92,1.24-1.79,1.17-1.15,1.27.58.95.13,1.06-.45,2.66-1.82,1.83-.45,4.22-.13,1.68-1.58.66-4.01,1.6-6.2,1.64-2.91,2.29-2.39,1.83-.5,2.37-.07,8.01,8.18,11.78,6.83,10.54,3.42,3.5.53,3.36.04,23.98-3.18v.04l1.91,4.31-.04,2.26-3.69,8.55-7.36,5.49-8.06,2.59-4.01,2.43-3.06,3.15-.87,2.12-.85,2.67-.02,1.85.98,3.28,2.19,3.95.47,2.68-.04,2.62.55,2.98.62,1.94.33,2.19-.22,1.07-2.8,1.87-1.71-.39-.36.75-.92,1.12-1.24.15-2.22-.67-.91.57-.62,1.49.26,1.12.66,1.01,1.46.85.62,1.05.22,1.29-.47.61-1.02.12-.25,1.23.15,1.8v2.02l-.44,6.35-6.48-4.12-1.76-2.02-2.44-3.64-2.15-4.72-.8-4.15-.18-4.06.22-2.37-1.89-7.52-1.68-1.68-2.84-.12-2.78,2.49-14.18-8.93-1.02-1.79-1.71-.99-2.37-3.3-.44-2.52-4.33-7.34-5.98,1.27Z"/>
      <path class="cls-7" d="M37.21,268.4l22.04-16.8,6.73-12.4-.93-3.27,5.98-1.27,4.33,7.34.44,2.52,2.37,3.3,1.71.99,1.02,1.79,14.18,8.93-.47,6.66-1.46,2.11-2.11,3.73-2.8,2.16-1.78.1-6.35-2.66-5.57-.4-3.42,1.85-2.82,2.28-5.17,7.96-1.75,1.28-.18,1.25,3.2,4.34,1.24,2-.69.91-.95.33-.95-.12-.8-.73-.91-.97-1.46-1.19-.91-.53-2.63-.44-3.93-5.1-3.79-3.55-2.11-3.62-1.31-3.17-2.45-2.53-3.35-1.4-2.17-1.68Z"/>
      <path class="cls-3" d="M22.93,291.64l3.59-3.26,1.21-.8,1.82-2.4.66-2.34-.58-2.18-1.89-1.99,5.37-7.15,4.11-3.13,2.17,1.68,3.35,1.4,2.45,2.53,1.31,3.17,2.11,3.62,3.79,3.55,3.93,5.1,5.22,5.5-3.57,1.85-2.23,2.05-.17.16-6.83,1.6-7.58,3.64-7.04.54-6.39-7.35-.1-.38-.15-.33-.19-.31-.22-.28-1.09-.89-3.06-3.59Z"/>
      <path class="cls-8" d="M58.99,312.02l1.76-6.9-3.98-6.41-1.21.28.17-.16,2.23-2.05,3.57-1.85-5.22-5.5,2.63.44.91.53,1.46,1.19.91.97.8.73.95.12.95-.33.69-.91-1.24-2-3.2-4.34.18-1.25,1.75-1.28,5.17-7.96,2.82-2.28,3.42-1.85,5.57.4,6.35,2.66,1.78-.1,2.8-2.16,2.11-3.73,1.46-2.11.47-6.66,2.78-2.49,2.84.12,1.68,1.68,1.89,7.52-.22,2.37.18,4.06.8,4.15,2.15,4.72,2.44,3.64,1.76,2.02,6.48,4.12-3.2,1.66-1.93,2.91v3.27l-10.61,7.7-5.75,9.73-5,5.96-1.53.55-3.24,2.29.25.88,1.17.49,1.93,1.18,1.89,2.32,3.24,2.04,4.24,4.23,1.02,1.31.84,1.3.73.79.66,1.36.98.85,3.68,2.12.62.75,2.52,4.03-5.18-2.19-2.55.33-5.03.03-4.05-1.19-12.5-6.9-7.03-1.18-3.28.17-6.13-2.11-2.33-1.58-2.08-2.36.04-1.07,1.17-.65,1.97-.18,1.31-.31,1.75-1.54,4.6-4.33,2.51-.87,1.24.31.62-.42.29-.78.22-2.33-.25-1.19-.84.06-.8-.1-.62-.31-.51-.55-.47-.32-.69-.14-.95.1-1.17-.16-1.1-.63-2.15-2.11-1.71-.92-1.49-.33-4.15-1.39Z"/>
      <path class="cls-1" d="M55.23,323.33l2.1-4.79,1.66-6.52,4.15,1.39,1.49.33,1.71.92,2.15,2.11,1.1.63,1.17.16.95-.1.69.14.47.32.51.55.62.31.8.1.84-.06.25,1.19-.22,2.33-.29.78-.62.42-1.24-.31-2.51.87-4.6,4.33-7.83-2.3-3.36-2.8Z"/>
      <path class="cls-2" d="M49.33,354.7l-1.93-3.8.78-11.5,7.05-16.08,3.36,2.8,7.83,2.3-1.75,1.54-1.31.31-1.97.18-1.17.65-.04,1.07,2.08,2.36,2.33,1.58,6.13,2.11,3.28-.17,7.03,1.18-.66,6.25-1.35,1.19-1.57,2.21-2.8,1.55-2.8,3.05-4.97.86-13.38-.38-4.19.72Z"/>
      <path class="cls-1" d="M52.7,358.92l-1.7-.93-1.67-3.29,4.19-.72,13.38.38,4.97-.86,2.8-3.05,2.8-1.55,1.57-2.21,1.35-1.19.66-6.25,12.5,6.9,4.05,1.19,5.03-.03,2.55-.33,5.18,2.19,5.65,3.02,1.35.1,5.21-.82,3.91,6.19-11.7,3.58-23.41,2.92-4.99-.16-1.42.53-4.71,3.37-1.37,3.09-9.3-7.22-3.93-1.21-8.09-.99-4.85-2.65Z"/>
      <path class="cls-7" d="M124.38,416.84l-.12-.31-2.11-.16-3.52-2.01-2.53-2.75-18.72-31.53-16.27-7.35-2.25-1.75,1.37-3.09,4.71-3.37,1.42-.53,4.99.16,23.41-2.92,11.7-3.58,6.77,5.71,12.25,6.81,1.49,2.66-3.35,5.55-2.62,1.39-1.82,1.46-.25,2.25.95,3.75,1.27,2.68.66,2.96-1.27,2.4-6.09,9.29,1.69,3.1-1.25,6.2-6.92-.38-3.58,3.36Z"/>
      <path class="cls-5" d="M625.88,9.5l.84-.21,4.91-2.91.72,10.27-1.02,13.81.11,1.91,2.7,2.02-1.89,2.81-7.21-1.02-1.49-.92-2.67-2.95-.51-1.29-4.04-.61-3.94.27.06-1.03,1.63-10.62-.19-2.42-1.04-.76-.22-.75,2.28-2.41,1.38-.8,9.6-2.37Z"/>
      <path class="cls-7" d="M623.12,66.33l-.51-7.86-2.65-5.28-5-3.19-2.7-8.36-.19-5.99.3-4.96,3.94-.27,4.04.61.51,1.29,2.67,2.95,1.49.92,7.21,1.02.55,7.04-.33,2.2-.73,3.12,1.35,3.63,1.75,1.66,2.02,1.03,2.11.58,1.93,1.6,3.75,1.55-1.24,4.64.33,1.78.95,3.42,1.31,1.74,1.09,1.95,1.02,2.34-.62,2.36-2.37,4.46-10.15-6.98-5.89-6.26-.07-.02-3.27-.79-2.61-1.92Z"/>
      <path class="cls-3" d="M611.59,58.18l4.55.81,2.57,1.8,4.39,5.52.03.02,2.61,1.92,3.27.79-7.99,10.2-.22,3.9,1.6,9.44-8.3,2.63-5.26-.77-5.32-2.79-3.97-4.91-.66-2.64-.07-1.89,3.57-3.21.62-1.63-.73-.42-1.2-.41-1.06.26-1.2.1-.95-.06-1.14-.62-.87-.16-2.95-1.29.11-5.77,5.33-.29,4.9-.53,3.45-3.16,4.89-6.86Z"/>
      <path class="cls-7" d="M611.59,58.18l-4.89,6.86-3.45,3.16-4.9.53-5.33.29-2.77-1.9-4.22-1.1-7.41-5.04-2.11-3.34-3.28-1.23-4.16-3.49-.47-.75,9-3.63,6.53-.56,6.53,1.29,15.93,8.05,4.99.89Z"/>
      <path class="cls-4" d="M568.6,52.16l.47.75,4.16,3.49-.11,5.88-.91,2.13-.22,1.98-1.47,1.64-.07,1.64.45,2.1,1.35,2.68-5.11-.44-.51.99-.69.68-.62,3.08-2.33-3.37-1.06-1.22-.8-1.46-.91-1.11-1.06-.79-1.32-1.55-.17-.86-.12-1.01-.55-.97-1.09-.99-3.31-.95-2.8.22-1.38-.48-1.06.03-.62.13-.84,1.1-.66,2.52-1.58,2.94-.4,1.67.07.79.18.34-.66.42-.62.56-6.26,1.12-5.47-8.17-.16-3.91,1.23-.92,1.41-2.99-.02-4.38.73-5.15,3.79,2.3,17.99,2.67,6.22-.35,6.92-2.79Z"/>
      <path class="cls-5" d="M530.34,63.77l.16,3.91,5.47,8.17,4.37,13.36-4.04,3.23-3.82-2.88-.84-2.43-3.18-2.94-1.97-1.29-1.64-2.04-1.78-.79-4.71.14-7.98-2.15-3.88-3.9.12-.64,2.31-4.86,3.59-2.74,5.03-1.32,5-.07,3.54,1.01,3.03-.86,1.2-.9Z"/>
      <path class="cls-4" d="M505.01,79.34l.87-1.94.63-3.23,3.88,3.9,7.98,2.15,4.71-.14,1.78.79,1.64,2.04,1.97,1.29,3.18,2.94.84,2.43,3.82,2.88,7.68.43,4.49,4.54,5.1,3.47,5.66.26,2.33-1.62,1.35,1.94.76.88.47,1.27.84.64-3.64,4.23-3.68,4.87-3.51,1.9-.55,1.18-.18.79.29.97.73,1.67,1.71,2.99-8.27-2.51-20.67-1.53-10.5,2.3-3.17-2.77,2.37-15.02-2.77-3.45v-2.2l-.36-3.2-1.2-1.6-1.06-.75-1.27-.59-.95-1.36-.84-1.92.07-2.55-1.06-4.55-1.48-1.82Z"/>
      <path class="cls-6" d="M505.01,79.34l1.48,1.82,1.06,4.55-.07,2.55.84,1.92.95,1.36,1.27.59,1.06.75,1.2,1.6.36,3.2v2.2l2.77,3.45-15.13,8.3-3.1,1.11-5.8-1.4.36-3.89.49-6.21-1-2.85-1.49-1.51-1.82-1.23-.69-1.92-1.31-.72v-1.53l.36-1.85.76-2.48.36-3.38-1.35-2.55-.02-.04,1.09.96,5.32,3.32,7.04-1.24,4.37-3.44.64-1.42Z"/>
      <path class="cls-7" d="M424.82,76.33l7.6.82,30.04-1.57-.05,2.91-.8,5.39-1.93,1.57-3.82,1.81-1.6.51-3.14,3.14-3.31,8.86-11.78,7.4-1.27,1.13-1.06,1.46-.29,2.6-2.29,2.18-4.41-1.62-1.18-2.93.12-1.68.51-2.25,1.27-2.28.87-2.74-.15-1.46-.69-1.41.51-.39.84.04,1.49-.4,1.35-.85,1.93-3.4.4-1.88v-1.43l-.55-1.08-1.42-1.16-1.38-.5-.55-.33-.73-.64-1.97-2.34.11-2.09-.55-1.36-1.87-2.8-.26-1.22Z"/>
      <path class="cls-1" d="M409.08,74.64l15.73,1.69.26,1.22,1.87,2.8.55,1.36-.11,2.09-6.82,5.4-3.35,1.3-3.39-.49-4.93-3.55-2.59-4.72-1.17-3.02-.73-4.58,4.67.5Z"/>
      <path class="cls-4" d="M404.42,74.14l.73,4.58,1.17,3.02,2.59,4.72,4.93,3.55-3.25.88-.76,1.27-1.13,2.78.51,2.57-.62,3.13-7.61,6.71-.47,1.57-1.09,1.16-.96.28-2.7-1.06-2.95,1.04-.62.53-.76.47-.51.18-.84-.02-3.31-4.19.87-2.94-.44-1.18-1.14-2.18-2.26-1.42-3.75-3.04-2.59-3.27-1.09-1.81-1.42-.95-3.95-.36-5.46-4.39-.15-.47,3.31-2.09,3.37.63,4.52,6.48,8.74-12.47,13.52-4.34,5.58.6Z"/>
      <path class="cls-8" d="M486.56,81.16l.02.04,1.35,2.55-.36,3.38-.76,2.48-.36,1.85v1.53l1.31.72.69,1.92-1.75,3.38h-1.31l-1.13-.12-3.61-2.48-.62-.32-4.53-1.51-2.88-.32-1.09.48-.55,1.16.04,2.89-.62,2.25-4.26,5.97-2.16,5.73-2.37,3.32-1.49,4.8-1.31-5.73.07-1.54.55-.91.18-.95-.73-1.05-3.68-2.08-1.97-3.56-5.44-5.27,3.31-8.86,3.14-3.14,1.6-.51,3.82-1.81,1.93-1.57.8-5.39.05-2.91,13-.68,6.92,2.6,4.18,3.67Z"/>
      <path class="cls-5" d="M359.39,88.66l.86-.12,5.12-3.23.15.47,5.46,4.39,3.95.36,1.42.95,1.09,1.81,2.59,3.27,3.75,3.04,2.26,1.42,1.14,2.18.44,1.18-.87,2.94-1.58,6.32-.36,6.01-.87,2.87-1.53,2.42-1.24.96-4.95,2.18-5.22-.46-.66-.54-3.9-4.21,5.61-5.65.66-3.13-.51-.7-.29-.53-.07-.58-.04-1.23-.15-1.85.11-4.15-.33-1.9-.62-1.08-1.89-.42-.69-.73-1.13-2.2-.95-2.27-.84-1.39-.84-.93-.66-.46-.47-.55-.47-.32-.58.06-.73-.02-.55-.51-1.29-2.72-.33-.92Z"/>
      <path class="cls-4" d="M359.39,88.66l.33.92,1.29,2.72.55.51.73.02.58-.06.47.32.47.55.66.46.84.93.84,1.39.95,2.27,1.13,2.2.69.73,1.89.42.62,1.08.33,1.9-.11,4.15.15,1.85.04,1.23.07.58.29.53.51.7-.66,3.13-5.61,5.65-5.75.11.73-4.12-.87-.98-1.65-1.35-2.37-2.53-.76-2.19-.11-1.64-1.27-1.1-1.35-.63-.84-1.62-1.46-.19-.95-.33-.84.22-.58.23-.76.12-.62-.12-3.65-.16-2.61.43,1.82-5.52,2.67-5.74,3.93-5.71,2.96-1.26,3.3.41,4-.54Z"/>
      <path class="cls-2" d="M336.51,117.88l2.47-5.66,1.72-5.21,2.61-.43,3.65.16.62.12.76-.12.58-.23.84-.22.95.33,1.46.19.84,1.62,1.35.63,1.27,1.1.11,1.64.76,2.19,2.37,2.53,1.65,1.35.87.98-.73,4.12-1.14,2.29-2,.42-2.99-.28-5.14-1.69-4.75-3.83-4.33-1.25-3.82-.74Z"/>
      <path class="cls-3" d="M336.51,117.88l3.82.74,4.33,1.25,4.75,3.83,5.14,1.69,2.99.28,2-.42,1.14-2.29,5.75-.11,3.9,4.21.66.54,5.22.46-2.19,10.07-.11,4.29-3.25,2.46-11.81,5.59-20.59-.54-6.68-2.3-1.35.21-3.61,3.34-4.92-7.11-2.71-1.91-10.89-2.16-.76-1.85,1.74.31,1.68-4.2,2.74-3.31,1.17-2.31,1.41-1.62,3.91-1.77,2.09,1.49,6.02-1,5.2-2.37,1.31-1.15,1.9-4.34Z"/>
      <path class="cls-8" d="M206.29,145.48l28.15.8,7.92-1.74,2.5.56,1.12,1.6.75,1.91,1.31,1.58,4.02,1.86-.67.95-2.73,6.66-.91,3.23-2.48,4.73.07,3.03-.73,4.23-10.79.28-2.11.82-2.91,2.79-1.83,1.14-.95,5.24-6.01.81-1.31-.25-1.38-.91-5.18-1.27-1.64-1.43-.91-2.43.47-1.6-1.24-.74-.62-1.05-.44-1.98,1.57-12.5-.55-7.91-3.46-3.99.91-4.03.04-.14.03-.24Z"/>
      <path class="cls-1" d="M184.11,144.74l.45.12,21.72.62-.03.24-.04.14-.91,4.03-3.53,1.18-2.02,1.62-3.39,4.47-1.24,3.45-1.02,2.29-2.44,1.75-2.69.25-2.2-.23-5.14,3.24-3.9-6.98,1.64-4.79.36-6.21,1.97-3.05.73-.77,1.66-1.37Z"/>
      <path class="cls-7" d="M184.11,144.74l-1.66,1.37-.73.77-1.97,3.05-.36,6.21-6.17,1.11-1.17-.35-3.46-1.56-2.15-1.83-18.89-10.27,1.72-2.76,1.17-.86,1.78-1.76.47-2.84.15-4.61,4.12-.74,4.13.11,3.84,1.14,3.45,1.73,13.21,11.39,2.51.68Z"/>
      <path class="cls-5" d="M307.35,138.16l.76,1.85,10.89,2.16,2.71,1.91,4.92,7.11-3.39,4.88-.07,2.88.47.99.25.96-1.27,1.33-2.6,1.88-13.41,6.39-6.92-.6-7.08,1.49-3.31.19-6.34-2.51-1.35-7.1-.2-.68,1.15-2.93,1.97-6.57,3.47-4.99,2.28-.93,5.1-.46,2.38-.7,2.43-1.58,4.71-4.92,1.07-.28,1.39.25Z"/>
      <path class="cls-1" d="M281.41,161.28l.2.68,1.35,7.1-7.7,2.88-15.67-1.34-3.42-.89-1.13-.07-1.21.25-.98.56-.76,1.43-.76,1.74-.44.63-1.2,1.03-5.06-.39.73-4.23-.07-3.03,2.48-4.73.91-3.23,2.73-6.66.67-.95,3.24,1.5,3.93.61,8.11-1.93,3.2,4.41,2.65,5.82,3.11,3.25,4.08-1.8,1.04-2.65Z"/>
      <path class="cls-5" d="M57.96,448.87l15.08-2.25-.2,8.04-2.71,4.58-1.24,4.95-.76.5-1.78.83-1.17-.47-.4-.47-.07-.75-1.46-2.15-1.13-.85-1.53-1.53-.76-2.96-.07-2-.47-1.31-1.2-2.68-.12-1.5Z"/>
      <path class="cls-3" d="M536.3,92.45l4.04-3.23-4.37-13.36,6.26-1.12.62-.56.66-.42-.18-.34-.07-.79.4-1.67,1.58-2.94.66-2.52.84-1.1.62-.13,1.06-.03,1.38.48,2.8-.22,3.31.95,1.09.99.55.97.12,1.01.17.86,1.32,1.55,1.06.79.91,1.11.8,1.46,1.06,1.22,2.33,3.37-2.33,6.59-.69,4.17.51,4.97-1.24,5.05-2.33,1.62-5.66-.26-5.1-3.47-4.49-4.54-7.68-.43Z"/>
      <path class="cls-1" d="M556.16,122.87l-1.71-2.99-.73-1.67-.29-.97.18-.79.55-1.18,3.51-1.9,3.68-4.87,3.61-.04,1.53-.29,1.24.33.95.69.66,1.08.26,1.42.51,1.02,4.31,3.17,1.38,1.76.58,1.8-.76.96-.62,1.15-.33.82,1.38,3.04-2.29,4.04-2.77,1.85-3.11,4.17-5.86-6.12-1.42-.75-1.89-.69-.7-.62-.39-.66-1.1-3.23-.33-.52Z"/>
      <path class="cls-7" d="M547.9,120.35l8.27,2.51.33.52-2,2.92-.29,1.01,1.02,1.88.51,2.03.69,1.96-3.71,4.9-1.75-1.69-2.77-5.61-.62-1.76,1.02-2.62.26-1.28-1.42-2.7.47-2.08Z"/>
      <path class="cls-5" d="M547.9,120.35l-.47,2.08,1.42,2.7-.26,1.28-1.02,2.62.62,1.76,2.77,5.61-5.32.88-.89.4-1.64.3-4.08.16-1.13-.25-1.6-.74-2.44-2.04-5.58-2.68h-6.15s-3.62-1.54-3.62-1.54l-6.01-.7-1.49-4.83,5.72-4.24,10.5-2.3,20.67,1.53Z"/>
      <path class="cls-6" d="M572.25,74.45l4.26.48,1.2,1.81.44,1.29.76,3.03.15,1.27.04,1.63,1.24,1.38,2.4,1.96,1.64.57,1.18.05,1.42-1.23,2.95,1.71,4.15,6.05,1.2,1.33.98.28.69-.54,1.43-.04.87-.23,2.59-1.76,1.68-1.84,5.32,2.79-2.91,2.39-1.27.55-2.73,2.04-.98,1.62-.62,1.2,2.08,7.97-1.02,2.57-7.51-4.1-1.86,1.43-2.66,1.46-1.24,1.43-.62,1.44-.73,1.31-.44,1.95-.73,1.4-.58,3.23-7.3,3.87-1.68-.81-1.38-3.04.33-.82.62-1.15.76-.96-.58-1.8-1.38-1.76-4.31-3.17-.51-1.02-.26-1.42-.66-1.08-.95-.69-1.24-.33-1.53.29-3.61.04,3.64-4.23-.84-.64-.47-1.27-.76-.88-1.35-1.94,1.24-5.05-.51-4.97.69-4.17,2.33-6.59.62-3.08.69-.68.51-.99,5.11.44Z"/>
      <path class="cls-5" d="M572.25,74.45l-1.35-2.68-.45-2.1.07-1.64,1.47-1.64.22-1.98.91-2.13.11-5.88,3.28,1.23,2.11,3.34,7.41,5.04,4.22,1.1,2.77,1.9-.11,5.77-3.13,3.23-2.11,4.49-.69,4.19-1.42,1.23-1.18-.05-1.64-.57-2.4-1.96-1.24-1.38-.04-1.63-.15-1.27-.76-3.03-.44-1.29-1.2-1.81-4.26-.48Z"/>
      <path class="cls-2" d="M488.44,95.65l1.82,1.23,1.49,1.51,1,2.85-.49,6.21-2.29,2.76.22,1.42-.4,2.11-2,4.45-5.97,6.47-1.64,7.4-4.09,1.91-.8.59-1.46.52-1.02-.19-3.02-2.98-1.13-.69-5.66.95-4.55-1.63-.84-3.5,2.51-6.19,1.49-4.8,2.37-3.32,2.16-5.73,4.26-5.97.62-2.25-.04-2.89.55-1.16,1.09-.48,2.88.32,4.53,1.51.62.32,3.61,2.48,1.13.12h1.31l1.75-3.38Z"/>
      <path class="cls-6" d="M447.79,99.78l5.44,5.27,1.97,3.56,3.68,2.08.73,1.05-.18.95-.55.91-.07,1.54,1.31,5.73-2.51,6.19-12.61-1.06-4.73.33-3.65-.79-6.34-4.75-1.64-2.15,2.48-4.08,2.29-2.18.29-2.6,1.06-1.46,1.27-1.13,11.78-7.4Z"/>
      <path class="cls-7" d="M376.2,128.07l4.95-2.18,1.24-.96,1.53-2.42.87-2.87.36-6.01,1.58-6.32,3.31,4.19.84.02.51-.18.76-.47.62-.53,2.95-1.04,2.7,1.06.96-.28,1.09-1.16.47-1.57,7.61-6.71,2.29,3.45,3.29,2.73,2.55,3.57,1.24,2.67,10.68,5.57,1.64,2.15-2.26,6.48-5.62,8.18-2.59,2.57-.4,3.57-1.17,1.56-.44.25-.69-.1-1.13.25-2.66,7.44-2.74-2.98-3.13-1.04-1.49-.11-.69,2.62-21-6.92-10.23-4.43,2.19-10.07Z"/>
      <path class="cls-8" d="M427.39,83.8l1.97,2.34.73.64.55.33,1.38.5,1.42,1.16.55,1.08v1.43l-.4,1.88-1.93,3.4-1.35.85-1.49.4-.84-.04-.51.39.69,1.41.15,1.46-.87,2.74-1.27,2.28-.51,2.25-.12,1.68,1.18,2.93,4.41,1.62-2.48,4.08-10.68-5.57-1.24-2.67-2.55-3.57-3.29-2.73-2.29-3.45.62-3.13-.51-2.57,1.13-2.78.76-1.27,3.25-.88,3.39.49,3.35-1.3,6.82-5.4Z"/>
      <path class="cls-4" d="M259.12,195.23l-11.74.93-6.49-.79-2.29.67-2-1.43-.73-1.53-.33-1.94.51-.86,2.29.75.95.18.91-1.19.62-1.7,1.03-4.8,2.77-8.62,5.06.39,1.2-1.03.44-.63.76-1.74.76-1.43.98-.56,1.21-.25,1.13.07,3.42.89,15.67,1.34,2.26,2.59.29,2.17-.55,3.3.98,2.44.44,1.45.62,1.27-2.15,3.17-6.74,4.13-3.4,1.09-4.01.12-3.9,1.56Z"/>
      <path class="cls-7" d="M247.38,196.16l11.74-.93-1.71,2.44-.98.9-.73,1.23-.84.63-.58,1.3-.63,1.86-.4,4,.22,7.58.33,3.25,4.31,5.76,1.06,2.46-.11.28-1.93,1.63-12.25.51-4.13-8.57-.51-.79-.62-.78-.26-.95.33-1.98,1.87-3.43,2.29-8.87,2.99-4.22.55-3.31Z"/>
      <path class="cls-3" d="M259.12,195.23l3.9-1.56,4.01-.12,3.4-1.09,6.74-4.13-.07,4.48,1.57,3.18.69,3.64,1.25,1.4,2.66,4.41-.11,1.33-.22,1.35-.44,1.2-.62.94-2.71,1.37-12.18,13.65-8.89-1.11-4.31-5.76-.33-3.25-.22-7.58.4-4,.63-1.86.58-1.3.84-.63.73-1.23.98-.9,1.71-2.44Z"/>
      <path class="cls-6" d="M277.16,188.34l2.15-3.17-.62-1.27-.44-1.45-.98-2.44.55-3.3-.29-2.17-2.26-2.59,7.7-2.88,6.34,2.51,3.31-.19,7.08-1.49,1.6,11.03,5.61,7.88,1.47,3.71.76,3.06,1.27,1.42,4.73-.17-.4,5.8,2.37,2.28,9.15,2.96,8.39.45,5.28-.46,10.25.52,7.07,4.17,10.61,7.36-4.7,2.79-2.62.63-26.57,3.02-3.76,1.3-4.95-.03-3.2-.56-4.49-1.54-7.72,1.02-5.95-2.53-1.38.17-1.53.52-1.46.81-1.68,1.65-5.29,2.98-4.55-.21-2.4-1.12.66-1.91-2.99-5.68-1.06-4.49-3.03-5.11,2.71-1.37.62-.94.44-1.2.22-1.35.11-1.33-2.66-4.41-1.25-1.4-.69-3.64-1.57-3.18.07-4.48Z"/>
      <path class="cls-1" d="M241.88,239.67l4.81-3.45-.69-1.51-1.13-5.66,12.25-.51,2.48,16.83-2.08,3.2-3.31,1.9-3.07-.02-1.49.63-1.02,1.15-.33,1.15-.11.77.95.63.76,2.29.73,1.43.91,1.24.69,1.17-.51.61-1.2.49-5.17,3.82-8.61-2.43-5.06,2.25-2.88-1.2-1.18-1.19-1.89-2.65,1.31-5.08-.66-1.78.73-2.79,1.61-2.6,4.59-3.63,2.77-.62,1.97-1.02,1.13-1.76.44-.93,2.27-.73Z"/>
      <path class="cls-3" d="M244.87,229.05l1.13,5.66.69,1.51-4.81,3.45-2.05-5.42-1.24-1.73-1.89-.51-.87.21-.91-.28-.25-1.61.44-1.26.51-.97-.4-.36-3.71,1.05-2.73-.15-14.59-6.06-1.49-1.21.04-1.71.58-1.08.8-.68.58-.69.15-1.01-.33-.83-.44-.66-6.3-3.01-6.26-2.52-3.25-1.8-3.71-4.18-6.05-4.48,2.95-.96,11.48,3.08,1.49.63,9.47-.58,5.58,2.24,6.26,4.59,1.17-.6.66-1.44.44-3.29-1.06-2.31-3.46-4.74-.91-.69-.07-1.28.29-1.21,1.97-1.94.47-1.8,1.35-.83-.55-2.45.95-5.24,1.83-1.14,2.91-2.79,2.11-.82,10.79-.28-2.77,8.62-1.03,4.8-.62,1.7-.91,1.19-.95-.18-2.29-.75-.51.86.33,1.94.73,1.53,2,1.43,2.29-.67,6.49.79-.55,3.31-2.99,4.22-2.29,8.87-1.87,3.43-.33,1.98.26.95.62.78.51.79,4.13,8.57Z"/>
      <path class="cls-5" d="M207.75,211.72l6.3,3.01.44.66.33.83-.15,1.01-.58.69-.8.68-.58,1.08-.04,1.71,1.49,1.21,14.59,6.06,2.73.15,3.71-1.05.4.36-.51.97-.44,1.26.25,1.61.91.28.87-.21,1.89.51,1.24,1.73,2.05,5.42-2.27.73-.44.93-1.13,1.76-1.97,1.02-2.77.62-4.59,3.63-1.61,2.6-.73,2.79.66,1.78-1.31,5.08-13.56-2.76-8.3,2.23-4.89,3.97-.73-3.04-1.71-1.81-.22-2.9.04-3,.73-1.85.91-1.55-.15-1.57-.36-1.11-1.02-1.02.15-1.08.58-1.61,1.13-2.1,1.46-1.35,1.94-3.95-.89-1.47-1.42-1.36-2.04-.56-4.33.26-2.91.6-2.71-.37,1.83-3.15,4.95-1.69,1.86-1.77,4.04-1.97,1.31-.24.92-.47,1.17-1.29,1.13-5.93,1.78-1.85,1.35-3.15Z"/>
      <path class="cls-6" d="M188.48,198.73l6.05,4.48,3.71,4.18,3.25,1.8,6.26,2.52-1.35,3.15-1.78,1.85-1.13,5.93-1.17,1.29-.92.47-1.31.24-4.04,1.97-1.86,1.77-4.95,1.69-1.83,3.15-15.09,3.05-.8.93-4.84,3.22-1.46-3.12-6.31-1.98-8.85-.86-2.2-.8-1.2-.88-.07-1.84.25-2.87,3.69-8.55.04-2.26-1.91-4.31,2.96-2.42,4.59-1.23,13.2,2.08,1.93-.85.55-1.85.73-5.25.98-2.28,1.75-2.43,2.56-.59,2.73-.27,7.84.86Z"/>
      <path class="cls-5" d="M191.43,197.77l-2.95.96-7.84-.86-2.73.27-2.56.59-1.75,2.43-.98,2.28-.73,5.25-.55,1.85-1.93.85-13.2-2.08-4.59,1.23-2.96,2.42v-.04l-23.98,3.18-3.36-.04-3.5-.53-10.54-3.42-11.78-6.83-8.01-8.18-2.19-5.27,3.5-8.25,1.71-3.14,3.42-3.33,15.02-8.14,3.22-4.45,1.46.32,7.28,5.01,4.78-.04,11.23,2.31,4.01,2.54,4.48,1.58,3.53,3.3,2.6.53,3.06,2.05,1.42,1.38,1.31,1.67,2.26,2.07,3.36,1.06,1.86-.28,1.97-.61,1.38-.64,1.57.21,1.13,1.81,1.35,3.29,1.02.68,2.23-2.64,11.4,1.28,1.24-.46,1.58-.23.84.4,1.17,1.7-.25,4.96Z"/>
      <path class="cls-4" d="M226.01,185.16l.55,2.45-1.35.83-.47,1.8-1.97,1.94-.29,1.21.07,1.28.91.69,3.46,4.74,1.06,2.31-.44,3.29-.66,1.44-1.17.6-6.26-4.59-5.58-2.24-1.64-5.24-.36-2.31.25-9.82,5.18,1.27,1.38.91,1.31.25,6.01-.81Z"/>
      <path class="cls-7" d="M191.43,197.77l.25-4.96-1.17-1.7-.84-.4-1.58.23-1.24.46-11.4-1.28,1.2-3.9,3.02-2.63.8-1.38.84-2.21,3.46-3.48.33-1.71-.69-1.74-1.53-3.09-1.24-2.07,5.14-3.24,2.2.23,2.69-.25,2.44-1.75,1.02-2.29,1.24-3.45,3.39-4.47,2.02-1.62,3.53-1.18,3.46,3.99.55,7.91-1.57,12.5.44,1.98.62,1.05,1.24.74-.47,1.6.91,2.43,1.64,1.43-.25,9.82.36,2.31,1.64,5.24-9.47.58-1.49-.63-11.48-3.08Z"/>
      <path class="cls-8" d="M374.02,138.14l10.23,4.43,21,6.92-.36,9.03-1.27,4.65-2.95,4.88-.74,6.82-6.48-1.3-5.9-3.03-3.29-4.33.62-3.16-.15-.53-.4-.75-.55-.6-1.02-.81-1.86-.46-3.2.79-2.11-.28-3.11-.85-2.4-1.54-8.78,2.51-.29-8.06-2.16-2.01,11.81-5.59,3.25-2.46.11-4.29Z"/>
      <path class="cls-6" d="M358.84,150.47l2.16,2.01.29,8.06-4.82,14.07-.04,5.02-3.42,7.5-4.44-.18-8.79-7.11-2.29-1.33-.76-.81-3.95,1.65,6.13-16.96.51-3.61-.8-3.3-.36-5.53,20.59.54Z"/>
      <path class="cls-7" d="M338.26,149.94l.36,5.53.8,3.3-.51,3.61-6.13,16.96-11.62,9.41-6.02,8.08-4.73.17-1.27-1.42-.76-3.06-1.47-3.71-5.61-7.88-1.6-11.03,6.92.6,13.41-6.39,2.6-1.88,1.27-1.33-.25-.96-.47-.99.07-2.88,3.39-4.88,3.61-3.34,1.35-.21,6.68,2.3Z"/>
      <path class="cls-5" d="M360.53,223.32l.66,5.99-2.12,3.97-1.64.66-15.45,1.82-.73.47.33.59,1.6.93.8,1.94-5.61-1.66-7.62-1.07-9.92,2.07-4.41,3.51-6.41,2.67-1.82-2.3-1.91-.57-.84-.45-.73-.91-.66-.96-.8-.53-.84-.2-.25-1.05.47-1.94,2.59-5.21,4.6-4.55,7.72-1.02,4.49,1.54,3.2.56,4.95.03,3.76-1.3,26.57-3.02Z"/>
      <path class="cls-4" d="M586.97,86.7l.69-4.19,2.11-4.49,3.13-3.23,2.95,1.29.87.16,1.14.62.95.06,1.2-.1,1.06-.26,1.2.41.73.42-.62,1.63-3.57,3.21.07,1.89.66,2.64,3.97,4.91-1.68,1.84-2.59,1.76-.87.23-1.43.04-.69.54-.98-.28-1.2-1.33-4.15-6.05-2.95-1.71Z"/>
      <path class="cls-3" d="M471.42,247.99l2.77,9.31-.87,3.51.25,2.92-.66,1.79-2.08,3.96-12.14,1.17-3.31,1.33-2.48,1.91-1.18-.02-.73-.98-.33-1.94-.36-1.26-1.02-1.56-1.86-1.2-3.5-1.25-11.85-.12-2.26.51-.22.44.18.81,1.68,1.99.69,1.28.25.8-.69,1.91-9.04-10.71-3.13-1.5-.91-.79-.66-.77-.36-.93.07-.72.66-1.11.95-.12.98.49,1.86,1.16,2.84.98.81-.37,1.97-1.34.8-1.2v-1.8l-1.93-4.36-2.02-3.06-2.91-3.58-5.75-4.31-.87-1.96-4.16-5.44,14.83-.39,6.46-1.25,2.91-3.38.44,1.74.8.21,1.75.17,4.56-1.87,2.08.12,1.71,1.12,8.64,1.66.36,2.27-.36,1.03-.62,1.08-.87.8-.98.51-.51.67.32.89.89.67,4.33-.25,11.99-5.11,2.73,4.58-.4,3.28-1.46,2.85.91,4.7Z"/>
      <path class="cls-5" d="M474.18,257.29l-2.77-9.31,7.61-5.55.89-.17,1.09.21.36,1,2.04,2.65.87.81,2.19,1.31.84,1.09.4,1.09-.29.94-.15,1.06-.25,1.01-.4.51-.95-.07-1.06-.68-.95-1.24-.69-.56-.76.28-.25.84-.44.77-1.93,1.61-1.72,1.95-.98.46-.98.23-1.71-.24Z"/>
      <path class="cls-1" d="M516.72,121.13l-5.72,4.24-9.15-.63-21.68,7.34,1.64-7.4,5.97-6.47,2-4.45.4-2.11-.22-1.42,2.29-2.76-.36,3.89,5.8,1.4,3.1-1.11,15.13-8.3-2.37,15.02,3.17,2.77Z"/>
      <path class="cls-5" d="M259.59,245.38l-2.48-16.83,1.93-1.63.11-.28-1.06-2.46,8.89,1.11,5.62,8.72,3.1.98-.18,4.34-2.15,1.51-.95,2.22-2.33,1.61-6.28,2.02-2.55.27-1.68-1.58Z"/>
      <path class="cls-8" d="M275.7,234.99l-3.1-.98-5.62-8.72,12.18-13.65,3.03,5.11,1.06,4.49,2.99,5.68-10.54,8.08Z"/>
      <path class="cls-3" d="M270.09,244.67l2.33-1.61.95-2.22,2.15-1.51.18-4.34,10.54-8.08-.66,1.91,2.4,1.12-1.49,4.28,1.42,9.73-16.26,5.17-1.57-4.45Z"/>
      <path class="cls-7" d="M206.7,286.98l.55,2.42-1.75,1.39.36,1.17,1.17,1.34,5.14,2.35,1.53.19.69-.57-.15-1.03.33-1.1,1.29-.64,6.01-1.08,1.64-.71,6.2-1.63,4.12-2.26,1.68-2.28,4.37-1.6,2.71,2.74.55,1.6-.11,1.18-.29,1.67-2.71.99-1.68,1.83-1.53,2.89.73,4.55-2.29,5.05-5.03,1.46-.58,1.08-.91,1.06-.96,3.86.15,3.01.74,2.97,4.7,12.22,1.49,2.32,2.91,3.64-2.7,1.35-9.19-6.67-3.82-1.31-2.4,1.85-3.17-7.28-5.95-7.36-5.03-5.1-2.11-1.46-1.51-.68-1.13.03-1.06-.62-.76-1.58.4-1.64,1.02-1.97-.36-2.52,1.02-4.65,2.05-1.33.29-.64-5.62-3.76-2.26-.64-1.38-5.59,12.61,1.5Z"/>
      <path class="cls-4" d="M206.7,286.98l-.15-3.78,2.15-2.79,1.06-.51,5.95-1.46,9.58.98,1.82.68,1.46,1.02,1.4,2.88.29,1.32.04,1.12-.29.84-.29,1.82-6.2,1.63-1.64.71-6.01,1.08-1.29.64-.33,1.1.15,1.03-.69.57-1.53-.19-5.14-2.35-1.17-1.34-.36-1.17,1.75-1.39-.55-2.42Z"/>
      <path class="cls-8" d="M602.39,110.22l-2.08-7.97.62-1.2.98-1.62,2.73-2.04,1.27-.55,2.91-2.39,5.26.77-2.29,6.75,4.26,6.63-6.46,4.5-1.17.16-1.57-.15-.55-.84-3.93-2.06Z"/>
      <path class="cls-6" d="M271.66,249.12l16.26-5.17-3.28,4.47-1.13,3.35-.4,5.66-6.97-2.85-4.48-5.46Z"/>
      <path class="cls-1" d="M651.24,12.07l3.2.99,1.06,1.47,1.46,1.49.87,2.55,4.52,4.41,1.72.54,1.6.81.95,1.14.47,2.87-2.48,6.71.91,1.68,3.13,4.22-4.81,6.07-1.36.04-1.42,2.14-.62.74.73,7.22-6.41,2.59-1.68-.62-8.46.48-3.75-1.55-1.93-1.6-2.11-.58-2.02-1.03-1.75-1.66-1.35-3.63.73-3.12.33-2.2-.55-7.04,1.89-2.81,4.42-.23,2.08.4,1.46.54,1.82-.59,1.6-1.21,3.5-6.88,2.23-14.35Z"/>
      <path class="cls-4" d="M651.24,12.07l-2.23,14.35-3.5,6.88-1.6,1.21-1.82.59-1.46-.54-2.08-.4-4.42.23-2.7-2.02-.11-1.91,1.02-13.81,3.86-.94,1.25-1.27,3.35-2.64,1.6-.64,6.19-.32,2.63,1.22Z"/>
      <path class="cls-8" d="M661.18,57.15l3.03,6.17.11,2.53,1.42,1.75,1.27,1.17,5.24,2.72,3.5.65-8.34,8.27-3.06,1.27-2.27,3.53-5.12,3.2-9.49-4.51-2.37-1.62,2.37-4.46.62-2.36-1.02-2.34-1.09-1.95-1.31-1.74-.95-3.42-.33-1.78,1.24-4.64,8.46-.48,1.68.62,6.41-2.59Z"/>
      <path class="cls-7" d="M601.37,112.79l1.02-2.57,3.93,2.06.55.84,1.57.15,1.17-.16,6.46-4.5,4.88,7.58-5.68,1.75-2.77,1.81-2.19,1.03-1.76,1.64-1.2,1.52-.55,4.92-4.37-5.76,1.31-5.05-.11-1.28-.33-1.58-.47-.84-1.46-1.55Z"/>
      <path class="cls-1" d="M250.11,284.01l3.35,4.39,2.89,2.18.55,1.41-1.38,1.91-2.02,1.94-1.71,2.42-.11,2.3,2.26,1.97,3.29,8.74-.07,3.72,1.2,5.56.69,4.92,5.46,8.45-11.27,5.86-1.49.17-4.3-2.68-2.48-6.97.69-2.47.4-3.62.73-4.35-.47-1.21-1.38-1.02-1.24.02-2.27-1.53-1.82-1.88-3.31-4.26-1.06-4.54,2.29-5.05-.73-4.55,1.53-2.89,1.68-1.83,2.71-.99.29-1.67.11-1.18-.55-1.6-2.71-2.74,5.18-1.19,1.2.31,3.86,1.97Z"/>
      <path class="cls-6" d="M250.11,284.01l-3.86-1.97-1.2-.31-5.18,1.19-4.37,1.6-1.68,2.28-4.12,2.26.29-1.82.29-.84-.04-1.12-.29-1.32-1.4-2.88-1.46-1.02-1.82-.68-9.58-.98-5.95,1.46-1.06.51-2.15,2.79.15,3.78-12.61-1.5.58-3.37-1.42-1.09,4.7-7.48.18-2.3.58-2.21.25-4.95,4.89-3.97,8.3-2.23,13.56,2.76,1.89,2.65,1.18,1.19,2.88,1.2,5.06-2.25,8.61,2.43,1.53.03,1.35.58.76.95,1.97,5.14.55.8.58,1.51.62,2.01.22,3.12-.11,1.62-.18.81-2.51,1.59Z"/>
      <path class="cls-8" d="M198.96,264.06l-.25,4.95-.58,2.21-.18,2.3-4.7,7.48-4.92-4.08-1.61-1.67-2.95-3.77-1.38-1.22-2.51-1.15-18.71-4.03-2.7.59-1.35.58-.69,2.86-1.6-1.99-.33-1.06.58-3.54.8-3.02,10.79-19.07,4.84-3.22.8-.93,15.09-3.05,2.71.37,2.91-.6,4.33-.26,2.04.56,1.42,1.36.89,1.47-1.94,3.95-1.46,1.35-1.13,2.1-.58,1.61-.15,1.08,1.02,1.02.36,1.11.15,1.57-.91,1.55-.73,1.85-.04,3,.22,2.9,1.71,1.81.73,3.04Z"/>
      <path class="cls-1" d="M193.25,281.01l1.42,1.09-.58,3.37,1.38,5.59,2.26.64,5.62,3.76-.29.64-2.05,1.33-1.02,4.65.36,2.52-1.02,1.97-.4,1.64.76,1.58,1.06.62,1.13-.03,1.51.68,2.11,1.46,5.03,5.1,5.95,7.36,3.17,7.28-5.33,13.32-12.8-5.62-5.24-3.22-4.84-1.03-12.47,2.25-1.2-3.35-2.78-7.65-1.13-1.58-.84-2.62-.07-2.55.33-2.97,1.64-3.16,1.43-3.98.29-3.38-.47-1.51-1.06-.42-.23-.66.52-1.34,2.33-1.82,1.93-2,1.97-2.6.33-4.53,7.62-4.86,3.68-5.98Z"/>
      <path class="cls-2" d="M601.37,112.79l1.46,1.55.47.84.33,1.58.11,1.28-1.31,5.05-9.55,1.44-4.84-.07-3.02-2.13.58-3.23.73-1.4.44-1.95.73-1.31.62-1.44,1.24-1.43,2.66-1.46,1.86-1.43,7.51,4.1Z"/>
      <path class="cls-4" d="M577.71,126.21l7.3-3.87,3.02,2.13,4.84.07,9.55-1.44,4.37,5.76-.69,2.26-5.14,3.25-3.29,3.59-.69,1.31-1.17.96-1.78.5-1.89-.45-3.5-2.19-5.77-7.77-5.17-4.11Z"/>
      <path class="cls-6" d="M550.96,136.4l1.75,1.69,1.49,3.5v1.16l-.33.98,2.95,5.13-11.03,6.7-4.67-5.13-3.35-1.62-2.73-.9-.36-1.16-19.51-11.61-2.15-1.95-.04-.74-.47-2.25,6.01.7,3.62,1.53h6.15s5.58,2.69,5.58,2.69l2.44,2.04,1.6.74,1.13.25,4.08-.16,1.64-.3.89-.4,5.32-.88Z"/>
      <path class="cls-2" d="M556.49,123.39l1.1,3.23.39.66.7.62,1.89.69,1.42.75,5.86,6.12,3.42-.5,1.29.4.76.4,3.24,4.09-3.06,1.93-.44,1.42.51,2.49-1.27,2.04-4.27-1.09-2.91,1.28-4.15-.47-4.16,1.38-2.95-5.13.33-.98v-1.16l-1.49-3.5,3.71-4.9-.69-1.96-.51-2.03-1.02-1.88.29-1.01,2-2.92Z"/>
      <path class="cls-5" d="M363.15,222.69l4.7-2.79-10.61-7.36,2.96-4.64v-1.56l.66-1.51,1.75-.53,2.48-.17,1.75-1.23,4.7-1.94,1.09-1.12v-1.31l1.06-.6.52.12,3.1-.19,9.32,8.76-8.23,13.39-.58,2.29-.4,4.69-7.84,2-1.71-.61-3.46-2.6-1.24-3.1Z"/>
      <path class="cls-1" d="M413.32,151l7.39,3.13,1.57.09,1.93.54,1.31.61.15,2.29-.15,1.45.07,1.39,3.4,1.89,2.55,9.47.84,2.24.36,2.79v1.26l-2.29,4.85-3.5.82-5.44-3.68-2.91.1-1.89,1.01-1.6,1.75-1.97,3.63-2.93-2.05-1.86-3.26-3.57-2.45-1.38-2.23-3.47-1.79.74-6.82,2.95-4.88,1.27-4.65.36-9.03.69-2.62,1.49.11,3.13,1.04,2.74,2.98Z"/>
      <path class="cls-6" d="M399.93,174.87l3.47,1.79,1.38,2.23,3.57,2.45,1.86,3.26,2.93,2.05-.29,7.92-.74,2.07-1.82,3.5-.76,1.96.66,1.85-1.46,3.7-2.11-.9-10.28-16.8,1.6-2.45.36-3.47.15-4.19,1.49-4.96Z"/>
      <path class="cls-5" d="M384.25,166.21l3.29,4.33,5.9,3.03,6.48,1.3-1.49,4.96-.15,4.19-.36,3.47-1.6,2.45-3.28-5.83-6.79-4.33-1.89-4.34-.4-2.03.29-7.21Z"/>
      <path class="cls-3" d="M353.02,187.13l3.42-7.5.04-5.02,4.82-14.07,8.78-2.51,2.4,1.54,3.11.85,2.11.28,3.2-.79,1.86.46,1.02.81.55.6.4.75.15.53-.62,3.16-.29,7.21.4,2.03,1.89,4.34-2,1.38-2.29,3.58-.33,1.89-.91,1.59-3.35,3.17-.98-5.35-1.53-1.99-1.42-.41-1.43.74-5.39,4.61-11.23,3.07-2.37-4.93Z"/>
      <path class="cls-5" d="M462.08,170.28l-14.91.06-8.28-9.33,5.04-7.32,3.1-7.88,1.49-2.05,1.78-1.17,3.98-1.09,6.3-.45,2.19,1.47.66.35-.04.74-1.24.68-1.09.9-.51,1.32.15,2.04,3.5,6.06,2.02,1.77,1.6,1.12.66,1.77-.4,3.16-.62,1.78-5.37,6.07Z"/>
      <path class="cls-8" d="M447.17,170.34l14.91-.06,1.35,2.29.44,3.09,2.6,2.72,4.44,2.51-1.02,3.31.29.93.51,1.31.47.69,1.57,1.43-.69,3.71.66.58.84,1.37-.44,1.7-.91.92-1.09,1.53-1.35.78-1.24,6.63-7.7-3.94-1.09-.4-1.53-.16-.84.46-1.2.11-1.02-.59-2.29-2.14-1.07-3.02-4.04-6.17-7.03-4.49,4.48-5.1.33-.95.22-1.45-.15-1.2.07-2.14.47-1.1,1.06-1.01.4-.54-.4-1.61Z"/>
      <path class="cls-1" d="M462.08,170.28l5.37-6.07.62-1.78.4-3.16-.66-1.77-1.6-1.12-2.02-1.77-3.5-6.06-.15-2.04.51-1.32,1.09-.9,1.24-.68.04-.74-.66-.35-2.19-1.47.51-2.48-.58-1.54-1.6-2.27-.47-4.23,4.55,1.63.8,4.07,1.69,2,1.6,2.37,3.68,1.67,3.28,2.34,3.82.98,5.73,4.51-1.46,2.43-.44,1.73-.55,1.6-.58.74v1.02l1.24,1.6.91,1.53-.36,1-.62.91-1.17,1.34-.18.96,3.79,3.27-3.06,5.57-1.06-.02-1.47-.7-1.82-.51-1.31.74-1.42,1.57-3.13,6-4.44-2.51-2.6-2.72-.44-3.09-1.35-2.29Z"/>
      <path class="cls-4" d="M457.6,127.05l.84,3.5.47,4.23,1.6,2.27.58,1.54-.51,2.48-6.3.45-3.98,1.09-1.78,1.17-1.49,2.05-3.1,7.88-5.04,7.32-9.91,1.39-3.4-1.89-.07-1.39.15-1.45-.15-2.29-1.31-.61-1.93-.54-1.57-.09-7.39-3.13,2.66-7.44,1.13-.25.69.1.44-.25,1.17-1.56.4-3.57,2.59-2.57,5.62-8.18,2.26-6.48,6.34,4.75,3.65.79,4.73-.33,12.61,1.06Z"/>
      <path class="cls-4" d="M345.47,247.57l1.14-1.5-.05-1.29.27-1.26-2.85-3.83-.8-1.94-1.6-.93-.33-.59.73-.47,15.45-1.82,1.64-.66,2.12-3.97-.66-5.99,2.62-.63,1.24,3.1,3.46,2.6,1.71.61,7.84-2,6.85-.41,3.04,5.68-1.06,1-.92.69-2.73,1.34-1.49,1.52-.11.66.44.1.8-.48.95-.26.91.21,3.36,4.11,3.2,5.32.95,2.99.04,1.83-.62.8-.98,1-.58.43-1.71.89-.36.03-.33-.04-2.78-.81-5.57,2.33-1.82,1.2-2.19,2.55-.84.68-.96.58-1.06.41-3.82.72-2.88-.02-.91.15-.76.26-.76-.24-1.09-.73-2.6-4.43-.15-1.61.33-1.13.22-1.53-.04-1.07-.8-1.05-2.04-.49-9.98-.12-1.07-2.5Z"/>
      <path class="cls-7" d="M345.47,247.57l1.07,2.5,9.98.12,2.04.49.8,1.05.04,1.07-.22,1.53-.33,1.13.15,1.61,2.6,4.43,1.09.73.76.24.76-.26.91-.15,2.88.02,3.82-.72,1.06-.41.96-.58.84-.68,2.19-2.55,1.82-1.2,5.57-2.33,1.13,6.81-.66,1.9-.98,1.69-1.09,1.02.07,1.35.44,1.97.36,2.48,1.13,2.2.18,1.76,3.4.98,2.33-.31,10.5-3.48.84,3.79.76,1.67,3.71,2.77-.18,3.22,5.35,8.95-3.24-.26-.47-.5-.73-.16-1.86.19-2.37,1.71-5.73-.3-3.35.54-.62,2.25-.29,2.75-1.06,2.79-1.89,2.44-5.69,1.95-4.15-2.71-3.28-.73-3.24-.15-1.07-6.35-3.3-8.22-5.38-4.99-5.56-7.23-5.56-5.24-5.04-1-9.03,4.49-12.67-2.24-3.69.25-2.56-1.31-.44-1.31-2.59-2.01,7.59-3.79,1.24-.89.95-2.37,12.29-5.16,6.7-7.27Z"/>
      <path class="cls-4" d="M353.02,187.13l2.37,4.93-1.2,4.33-2.29,3.13-1.09,3.48-.62,5.38-10.25-.52-5.28.46-8.39-.45-9.15-2.96-2.37-2.28.4-5.8,6.02-8.08,11.62-9.41,3.95-1.65.76.81,2.29,1.33,8.79,7.11,4.44.18Z"/>
      <path class="cls-6" d="M264.51,333.91l1.89,3.54-.47,2.75.22,3.47,1.87,3.72-2.82,1.75-2.26.89-6.19,5.27-1.53,1.82-1.02,1.65-.96,2.14v1.59l1.03,2.19,3.97,4.63,4.19,3.29,1.24.53.84,1.5.55,1.31-3.31,2.64-15.93,12.67-5.73.87-13.74-10.84-1.06-4.79-5.61-1.06-2.77-1.89-4.24-4.51-2.62-4.79.25-3.64,4.66-12.02-.66-2.99,5.33-13.32,2.4-1.85,3.82,1.31,9.19,6.67,2.7-1.35,1.97,2.16.98.7,1,.87,1.6-.27,1.46-2.08,2.69-1.18,4.3,2.68,1.49-.17,11.27-5.86Z"/>
      <path class="cls-5" d="M268.02,347.4l-1.87-3.72-.22-3.47.47-2.75-1.89-3.54,4.16-1.23,5.35,1.95,2.8,2.08,1.68.72,1.2.87,1.61.19,1.97-.1,2.62-2.34,1.24-2.62-.29-4.69,1.49.44.51-.7.18-1.55,1.49-2.43,4.86,4.82,1.02,2.8,3.35,3.86v4.04l-.25,1.36-.51,1.62.44,1.53,1.49.26,1.53.72,4.12,3.07,4.35,6.49-4.05,1.28-3.75,3.03-6.26,2.29-9.59,1.65-5.35,1.13-8.13-7.67-5.75-9.36Z"/>
      <path class="cls-3" d="M237.75,337.07l-2.91-3.64-1.49-2.32-4.7-12.22-.74-2.97-.15-3.01.96-3.86.91-1.06.58-1.08,5.03-1.46,1.06,4.54,3.31,4.26,1.82,1.88,2.27,1.53,1.24-.02,1.38,1.02.47,1.21-.73,4.35-.4,3.62-.69,2.47,2.48,6.97-2.69,1.18-1.46,2.08-1.6.27-1-.87-.98-.7-1.97-2.16Z"/>
      <path class="cls-4" d="M214.31,345.6l.66,2.99-4.66,12.02-.25,3.64,2.62,4.79,4.24,4.51,2.77,1.89,5.61,1.06-12.14,6.46-3.53,2.72-8.64,3.23-4.22.27-6.92,3.18-5.26,1.06-3.75.02-3.93-1.06-5.58-2.52-2.69-6.69-2.29-3.06-8.21-5.92,1.49-4,1.24-1.73.76-6.33,1.54-3.92-2.96-9.52,11.05-3.99.84-1.02,6.9-5.7,12.47-2.25,4.84,1.03,5.24,3.22,12.8,5.62Z"/>
      <path class="cls-8" d="M225.28,376.5l1.06,4.79,13.74,10.84,1.69,6.1,5.46,6.22,2.15,3.06.11,5.89-11.19-2.67-2.22-2.58-5.14-4.19-3.44.1-.98.42.55,1.02-.58,1.25-2.66,1.47-7.39,1.49-9.15,3.65-2.04,1.16-2.62,2.46-2.6.67-5.06.61-9.92-.64-5.72.35-4.05,1.47-1.75,1.07-2.88-.48-2.51-1.23-.07-.57.84-1.99-1.24-3.31-1.2-2.54-.84-2.23-.15-4.66-.95-2.04-.47-2.27.51-2.37,1.64-3.07,2.7-1.28,2.4-2.61,5.58,2.52,3.93,1.06,3.75-.02,5.26-1.06,6.92-3.18,4.22-.27,8.64-3.23,3.53-2.72,12.14-6.46Z"/>
      <path class="cls-3" d="M447.17,170.34l.4,1.61-.4.54-1.06,1.01-.47,1.1-.07,2.14.15,1.2-.22,1.45-.33.95-4.48,5.1-3.29,1.07-6.96-3.49,2.29-4.85v-1.26l-.36-2.79-.84-2.24-2.55-9.47,9.91-1.39,8.28,9.33Z"/>
      <path class="cls-6" d="M437.4,186.51l3.29-1.07,7.03,4.49,4.04,6.17,1.07,3.02,2.29,2.14,1.02.59,1.2-.11.84-.46,1.53.16,1.09.4,7.7,3.94-.55,3.28-1.09,1.39-1.87,1.67-.98,4.32-1.68-.21-1.06.39-1.42.72-1.78,1.24-1.38,1.5v6.41l.4,1.88-2,1.64-8.64-1.66-1.71-1.12-2.08-.12-4.56,1.87-1.75-.17-.8-.21-.44-1.74,1.78-12.84-.29-2.6-.73-4.18-.15-1.29.36-.74.04-.42-.62-2.3.25-1.3.8-2.38.84-1.46v-10.85Z"/>
      <path class="cls-7" d="M357.24,212.54l-7.07-4.17.62-5.38,1.09-3.48,2.29-3.13,1.2-4.33,11.23-3.07,5.39-4.61,1.43-.74,1.42.41,1.53,1.99.98,5.35-.07,6.47-3.1.19-.52-.12-1.06.6v1.31l-1.09,1.12-4.7,1.94-1.75,1.23-2.48.17-1.75.53-.66,1.51v1.56l-2.96,4.64Z"/>
      <path class="cls-4" d="M287.91,243.95l-1.42-9.73,1.49-4.28,4.55.21,5.29-2.98,1.68-1.65,1.46-.81,1.53-.52,1.38-.17,5.95,2.53-4.6,4.55-2.59,5.21-.47,1.94.25,1.05.84.2.8.53.66.96.73.91.84.45,1.91.57,1.82,2.3-2.19,1.71.15,2.08.98.64.95.89,1.42.86-.51,2.83-4.89-.11-3.13,1.54-5.61,3.66-2.77,1.3-5.44.59-.47-2.98-5.39-.79.4-5.66,1.13-3.35,3.28-4.47Z"/>
      <path class="cls-1" d="M323.24,294.42l2.22-1.62,5.43-.53.58-.59,1.46-.76,6.93.26,7.55,2.4,3.02.22,1.64-.27.18-1.19.47-.71,1.35.4,1.42,1.06,6.6,9.84,5.1,3.34-4.33,4.65-4.71,2.64-1.6,2.93-.76,2.57-1.09,8.83-1.24,3.83.62,3.31,1.35,2.68-.15,4.19-6.12,1.15-.73.93v1.99l.69,1.74,1.38,4.97-.11,5.79-1.6,2.73-2.78,1.23-2.99-.66-4.66.16-4.67-3.63-.69-2.29-2.51-2.64-1.6-2.95-1.27-1.88.4-4.57,1.6-4.33.18-.99-3.82-5.56-1.06-3.08.04-1.53.58-2.1.07-1.57-3.2-6.45-.51-2.77-.51-1.98.36-1.16-.15-.81-1-.77-2.48-.96-.84-.16.62-4.43,3.69-5.5,1.64-5.42Z"/>
      <path class="cls-8" d="M325.46,292.8l-2.22,1.62-3.65-1.91-2.19-1.83-1.31-.64-2,.07-3.46,1.95-.91,1.59-1.35,1.42-3.8,2.17-7.07.19-3.39-2.51-6.86-6.32-5.65-1.16-4.97.85-1.49,1.1.15,3.14-.66,4.55-4.7-2.63-2.44.14-5.26,1.92-1.46,2.97-6.86,3.03-2.26-1.97.11-2.3,1.71-2.42,2.02-1.94,1.38-1.91-.55-1.41-2.89-2.18-3.35-4.39,2.51-1.59.18-.81.11-1.62-.22-3.12-.62-2.01-.58-1.51-.55-.8-1.97-5.14-.76-.95-1.35-.58-1.53-.03,5.17-3.82,1.2-.49.51-.61-.69-1.17-.91-1.24-.73-1.43-.76-2.29-.95-.63.11-.77.33-1.15,1.02-1.15,1.49-.63,3.07.02,3.31-1.9,2.08-3.2,1.68,1.58,2.55-.27,6.28-2.02,1.57,4.45,4.48,5.46,6.97,2.85,5.39.79.47,2.98.36,2.77,4.64,2.81,4.12,1.08,5.72-.35,4.82-1.59,1.38.27,1.97,1.33,4.73-.49,2.59,2.01.44,1.31,2.56,1.31-.69,2.53v1.45l-.44,1.06,1.46,1.95,1.46,1.59,1.17,2.01.62,2.05-.84,1.86.44,6.63Z"/>
      <path class="cls-5" d="M325.46,292.8l-.44-6.63.84-1.86-.62-2.05-1.17-2.01-1.46-1.59-1.46-1.95.44-1.06v-1.45l.69-2.53,3.69-.25,12.67,2.24,9.03-4.49,5.04,1,5.56,5.24,5.56,7.23,5.38,4.99,3.3,8.22,1.07,6.35-3.51,2.99-2.88,1.08-5.1-3.34-6.6-9.84-1.42-1.06-1.35-.4-.47.71-.18,1.19-1.64.27-3.02-.22-7.55-2.4-6.93-.26-1.46.76-.58.59-5.43.53Z"/>
      <path class="cls-7" d="M274.64,297.1l4.88,6.01,1.38,5.81.36,3.86-1.09,7.59.85.84.76,1.21.29,1.55-.11,1.91.51.93,4.37,1.92.29,4.69-1.24,2.62-2.62,2.34-1.97.1-1.61-.19-1.2-.87-1.68-.72-2.8-2.08-5.35-1.95-4.16,1.23-5.46-8.45-.69-4.92-1.2-5.56.07-3.72-3.29-8.74,6.86-3.03,1.46-2.97,5.26-1.92,2.44-.14,4.7,2.63Z"/>
      <path class="cls-3" d="M326.48,260l-.95,2.37-1.24.89-7.59,3.79-4.73.49-1.97-1.33-1.38-.27-4.82,1.59-5.72.35-4.12-1.08-4.64-2.81-.36-2.77,5.44-.59,2.77-1.3,5.61-3.66,3.13-1.54,4.89.11,3.82,1.94,2.91.54,1.35,1.26,1.09,1.99,1.98.44,4.52-.38Z"/>
      <path class="cls-7" d="M406.6,206.74l2.11.9,4.64,4.55,3.28,1.89,1.27,1.49.11.55-.69-.06-.62.1-.55.95-.33,1.65-.04,5.18-.4,2.86-.36,1.13-.58.89-.76.75-.84.52-.78.26-1.71.19-7.83,1-7.66-3.02,1.53-4.83.22-1.28-.33-4.99,3.64-1.5,6.68-9.19Z"/>
      <path class="cls-1" d="M345.47,247.57l-6.7,7.27-12.29,5.16-4.52.38-1.98-.44-1.09-1.99-1.35-1.26-2.91-.54-3.82-1.94.51-2.83-1.42-.86-.95-.89-.98-.64-.15-2.08,2.19-1.71,6.41-2.67,4.41-3.51,9.92-2.07,7.62,1.07,5.61,1.66,2.85,3.83-.27,1.26.05,1.29-1.14,1.5Z"/>
      <path class="cls-8" d="M325.97,333.1l3.82,5.56-.18.99-1.6,4.33-.4,4.57,1.27,1.88,1.6,2.95,2.51,2.64.69,2.29,4.67,3.63-.47,5.79.33,1.67,2.29,5.92-4.19,4.89-25.41-25.14-4.35-6.49-4.12-3.07-1.53-.72-1.49-.26-.44-1.53.51-1.62.25-1.36v-4.04l4.59-2.87,1.13-1.81,1.68-.49,1.51.47,1.57.99,9,3.15h1.94l4.81-2.31Z"/>
      <path class="cls-4" d="M406.38,280.21l-3.71-2.77-.76-1.67-.84-3.79,4.12-1.07-.29-3.28,2.29-.63,1.06-.64,1.02-4.11,5.18,2.55,8.23-2.2,9.04,10.71.62,2.62.55.68.76.68,1.93.49.87.35.69.42,1.89,1.61.89.5.55.72.25,1.07-1.27,1.05-3.33.37-17.89-4.38-11.85.74Z"/>
      <path class="cls-4" d="M464.01,216.43l5.26,2.26.47,1.17.62,1.98-.55,2.15-.18,8.58-11.99,5.11-4.33.25-.89-.67-.32-.89.51-.67.98-.51.87-.8.62-1.08.36-1.03-.36-2.27,2-1.64-.4-1.88v-6.41l1.38-1.5,1.78-1.24,1.42-.72,1.06-.39,1.68.21Z"/>
      <path class="cls-5" d="M472.73,188.56l-1.57-1.43-.47-.69-.51-1.31-.29-.93,1.02-3.31,3.13-6,1.42-1.57,1.31-.74,1.82.51,1.47.7,1.06.02,3.06-5.57,6.7,3.83,1.83.61,9.72-.47,5.07,3.05,1.82.2,2.04,1.78,1.6,3.68,1.71,8.55.66,5.15-1.27,5.32-5.28.38-4.24-2.12-1.38.71-1.42.25-24.39-7.39-4.63-3.21Z"/>
      <path class="cls-5" d="M193.25,281.01l-3.68,5.98-7.62,4.86-6.46-2.32-.62-.87-.69-1.2-1.17-2.88-.98-1.64-1.53-.06-1.93-.81-6.53-9.54-5.61-3.42.69-2.86,1.35-.58,2.7-.59,18.71,4.03,2.51,1.15,1.38,1.22,2.95,3.77,1.61,1.67,4.92,4.08Z"/>
      <path class="cls-6" d="M484.18,168.23l-3.79-3.27.18-.96,1.17-1.34.62-.91.36-1-.91-1.53-1.24-1.6v-1.02l.58-.74.55-1.6.44-1.73,1.46-2.43,4.22,1.97,2.48,3.1.76,1.43.69,1.9.67.71.76.29,1.24-.21,1.68-.06,3.31.96,1.09.82.22.89-.36,3.07.66,3.1,1.42,4.12-9.72.47-1.83-.61-6.7-3.83Z"/>
      <path class="cls-3" d="M166.67,240.44l-10.79,19.07-.8,3.02-.58,3.54.33,1.06,1.6,1.99-.04,2.37-1.27.54-1.24.23-2.37-.24-2.2-.89-4.19-2.99-4.08-3.64-1.06-.17-.25.65-.18,1.14-.33.92-1.78,1.73-.98,1.5-1.29.23-.95-.07-1.09-.78-.8.15-.29.7.04,1.16-.69,1.47-2.26.12-1.38-.37-3.06-1.91,2.8-1.87.22-1.07-.33-2.19-.62-1.94-.55-2.98.04-2.62-.47-2.68-2.19-3.95-.98-3.28.02-1.85.85-2.67.87-2.12,3.06-3.15,4.01-2.43,8.06-2.59,7.36-5.49-.25,2.87.07,1.84,1.2.88,2.2.8,8.85.86,6.31,1.98,1.46,3.12Z"/>
      <path class="cls-6" d="M113.63,164.85l16.47-8.92,6.86-6.19,3.1-2.16,2.8-1.4,1.68-2.05,3.02-.88,18.89,10.27,2.15,1.83,3.46,1.56,1.17.35,6.17-1.11-1.64,4.79,3.9,6.98,1.24,2.07,1.53,3.09.69,1.74-.33,1.71-3.46,3.48-.84,2.21-.8,1.38-3.02,2.63-1.2,3.9-2.23,2.64-1.02-.68-1.35-3.29-1.13-1.81-1.57-.21-1.38.64-1.97.61-1.86.28-3.36-1.06-2.26-2.07-1.31-1.67-1.42-1.38-3.06-2.05-2.6-.53-3.53-3.3-4.48-1.58-4.01-2.54-11.23-2.31-4.78.04-7.28-5.01Z"/>
      <path class="cls-5" d="M177.76,334.63l1.2,3.35-6.9,5.7-.84,1.02-11.05,3.99-5.72-3.73-.84-2.43-.8-3.32-2.26-2.64-1.83-.97-2.48-.61-3.13.17-3.97,1.18-5.66,3.44-2.48,2.62-3.39,2.11-3.68,2.93-1.4,4.04-5.21.82-1.35-.1-5.65-3.02-2.52-4.03-.62-.75-3.68-2.12-.98-.85-.66-1.36-.73-.79-.84-1.3-1.02-1.31-4.24-4.23-3.24-2.04-1.89-2.32-1.93-1.18-1.17-.49-.25-.88,3.24-2.29,1.53-.55,5-5.96,5.75-9.73,10.61-7.7v-3.27l1.93-2.91,3.17,4.48.22,1.32,1.53,1.55,2.29,1.58,4.24,2.16,5.32,6.14,5.69,4.84,3.13.96,2.26,2,4.63,3.01,3,3.13,9.29,6.5,18.34,3.84Z"/>
      <path class="cls-3" d="M158.1,374.19l8.21,5.92,2.29,3.06,2.69,6.69-2.4,2.61-2.7,1.28-1.64,3.07-.51,2.37.47,2.27.95,2.04.15,4.66.84,2.23,1.2,2.54,1.24,3.31-.84,1.99.07.57,2.51,1.23-.18,3.4-2.95,1.41-1.24,2.11-1.31.86-1.6.47-4.67-.95-3.46-3.01-4.41-2.13-4.35-3.13-3.82-1.99-4.84-.97-2.93-2.23,1.25-6.2-1.69-3.1,6.09-9.29,1.27-2.4-.66-2.96-1.27-2.68-.95-3.75.25-2.25,1.82-1.46,2.62-1.39,3.35-5.55,3.03-1.65.58-.49,1.64.1.84.17,5.03,3.2Z"/>
      <path class="cls-6" d="M181.95,291.85l-.33,4.53-1.97,2.6-1.93,2-2.33,1.82-.52,1.34.23.66,1.06.42.47,1.51-.29,3.38-1.43,3.98-1.64,3.16-.33,2.97.07,2.55.84,2.62,1.13,1.58,2.78,7.65-18.34-3.84-9.29-6.5-3-3.13-4.63-3.01-2.26-2-3.13-.96-5.69-4.84-5.32-6.14-4.24-2.16-2.29-1.58-1.53-1.55-.22-1.32-3.17-4.48,3.2-1.66.44-6.35v-2.02l-.15-1.8.25-1.23,1.02-.12.47-.61-.22-1.29-.62-1.05-1.46-.85-.66-1.01-.26-1.12.62-1.49.91-.57,2.22.67,1.24-.15.92-1.12.36-.75,1.71.39,3.06,1.91,1.38.37,2.26-.12.69-1.47-.04-1.16.29-.7.8-.15,1.09.78.95.07,1.29-.23.98-1.5,1.78-1.73.33-.92.18-1.14.25-.65,1.06.17,4.08,3.64,4.19,2.99,2.2.89,2.37.24,1.24-.23,1.27-.54.04-2.37,5.61,3.42,6.53,9.54,1.93.81,1.53.06.98,1.64,1.17,2.88.69,1.2.62.87,6.46,2.32Z"/>
      <path class="cls-6" d="M160.18,348.68l2.96,9.52-1.54,3.92-.76,6.33-1.24,1.73-1.49,4-5.03-3.2-.84-.17-1.64-.1-.58.49-3.03,1.65-1.49-2.66-12.25-6.81-6.77-5.71-3.91-6.19,1.4-4.04,3.68-2.93,3.39-2.11,2.48-2.62,5.66-3.44,3.97-1.18,3.13-.17,2.48.61,1.83.97,2.26,2.64.8,3.32.84,2.43,5.72,3.73Z"/>
      <path class="cls-4" d="M268.02,347.4l5.75,9.36,8.13,7.67-2.56,2.95,3,4.87.84,2.45.04,2.46,1.49,5.64-4.82.22-1.31-1.2-2.95,1.29-1.86,1.4-1.02.44-4.01-.74-7-5.62,3.31-2.64-.55-1.31-.84-1.5-1.24-.53-4.19-3.29-3.97-4.63-1.03-2.19v-1.59l.96-2.14,1.02-1.65,1.53-1.82,6.19-5.27,2.26-.89,2.82-1.75Z"/>
      <path class="cls-7" d="M469.63,232.58l.18-8.58.55-2.15-.62-1.98-.47-1.17-5.26-2.26.98-4.32,1.87-1.67,1.09-1.39.55-3.28,1.24-6.63,1.35-.78,1.09-1.53.91-.92.44-1.7-.84-1.37-.66-.58.69-3.71,4.63,3.21,24.39,7.39,1.42-.25,1.38-.71,4.24,2.12-1.38,1.52-.73,1.11-1.42,1.3-2.85,3.64-3.53,2.37-2.7,1.28-4.13,2.96-1.97,2.12-.58.81-.18,1.57.69,2.83,1.94,4.97,4.19,6.54.55,1.94,1.2,2.51,1.78,1.73,3.28,1.29,2.67-.82,2.33-.24,1.31-.44,3.17,2.11-2.22,8.38-4.26,2.93-2.45,3.11-1.93,1.06-1.75-.37-.91-.52-1.49-.24-.73,1.54-.47,1.99,2.37,4.89,1.42,6.78-17.42,1.47-11.74-2.97,2.08-3.96.66-1.79-.25-2.92.87-3.51,1.71.24.98-.23.98-.46,1.72-1.95,1.93-1.61.44-.77.25-.84.76-.28.69.56.95,1.24,1.06.68.95.07.4-.51.25-1.01.15-1.06.29-.94-.4-1.09-.84-1.09-2.19-1.31-.87-.81-2.04-2.65-.36-1-1.09-.21-.89.17-7.61,5.55-.91-4.7,1.46-2.85.4-3.28-2.73-4.58Z"/>
      <path class="cls-8" d="M510.2,249.8l2.48,2.21,2.91.63,3.91,3.36,2.11,1.16,3.46,7.62-.73,1.22-.22,1.24.87,3.24,2,1.1,2.84,8.44,1.06,1.03,1.65,1.22,1.75.64,5.79.03,1.06,1.95-10.32,7.65-6.15,3.12-3.28.16,4.7-8.17-.44-.77-.58-.61-3.35.44-1.68.58-1.42.1-1.07.43-1.86.21-2.59-9.11-2.51-2.88-3.02-2.23-1.75-.21-5.84-2.63-1.42-6.78-2.37-4.89.47-1.99.73-1.54,1.49.24.91.52,1.75.37,1.93-1.06,2.45-3.11,4.26-2.93Z"/>
      <path class="cls-6" d="M508.78,200.32l5.28-.38,3.13,1.38,4.71,12.76,2.59,3.57,1.68.96.73.89,1.46,5.32-8.12,8.47-2.63,4.9-5.17,3.23-3.17-2.11-1.31.44-2.33.24-2.67.82-3.28-1.29-1.78-1.73-1.2-2.51-.55-1.94-4.19-6.54-1.94-4.97-.69-2.83.18-1.57.58-.81,1.97-2.12,4.13-2.96,2.7-1.28,3.53-2.37,2.85-3.64,1.42-1.3.73-1.11,1.38-1.52Z"/>
      <path class="cls-1" d="M470.83,269.47l11.74,2.97.44,4.52-.18,1.18-.66,1.57v2.91l.55,2.47.84,2.67,1.24,1.78.47,1.9-.11,2.14-1.24,2.24-8.13,8.2-4.22,6.25-2,5.5-3.91-3.27-.91-2.33-1.86-.94-1.75-.56-2.37-.44-5.03.37-1.42.75-.74.68-.25.92-.07,1.22.36,1.71-.62,1.57-1.09-.14-3.13-2.9-1.49-.08-.55.37-.07.78-.44,1.03-4.01,2.16.11,2.62-8.21-4.38-5.39-4.72-3.44-4.37-1.68-3.32.22-2.12.76-1.4,1.06-1.35.29-1.86-.62-.59-1.06.16-1.13.52-1.27.93-1.89.64-1.46-.7-.98-1.74-3.98-2.6-5.35-8.95.18-3.22,11.85-.74,17.89,4.38,3.33-.37,1.27-1.05-.25-1.07-.55-.72-.89-.5-1.89-1.61-.69-.42-.87-.35-1.93-.49-.76-.68-.55-.68-.62-2.62.69-1.91-.25-.8-.69-1.28-1.68-1.99-.18-.81.22-.44,2.26-.51,11.85.12,3.5,1.25,1.86,1.2,1.02,1.56.36,1.26.33,1.94.73.98,1.18.02,2.48-1.91,3.31-1.33,12.14-1.17Z"/>
      <path class="cls-3" d="M418.31,336.45l-2.26,8.13-1.53,1.39-.8.41-.78-.08-.44.07-.36.42.25,1.27.09.96-.09,1.2-.33,1.13-.73,1.79-.58,1.13-.8,1.17-1.89.52-1.17,1.74-2.4,1.35-7.88-5.89-.87-.83-2.69-4.95.11-6.76,1.31-1.98,1.68-1.93,2.33-1.82,2.42-.59.91-.1,1.97-.61,1.35-1.49,1.24-2.23.84-.57,1.06-.04.8,1.02,1.53,1.15,1.2,1.35,1.43.94,1.13,1.09,3.97,1.69Z"/>
      <path class="cls-8" d="M418.31,336.45l-3.97-1.69-1.13-1.09-1.43-.94-1.2-1.35-1.53-1.15-.8-1.02-1.06.04-.84.57-1.24,2.23-1.35,1.49-1.97.61-.91.1-2.42.59-2.33,1.82-1.68,1.93-1.31,1.98-.11,6.76-2.73.97-1.42-.58-.98-1.73-3.65-1.44-4.92,2.35-2.8-.56-1.89-1.42-.98-1.81-.44-1.89-1-1.55-2.37-1.67-2.15-.66-12.29.35-1.35-2.68-.62-3.31,1.24-3.83,1.09-8.83.76-2.57,1.6-2.93,4.71-2.64,4.33-4.65,2.88-1.08,3.51-2.99,3.24.15,3.28.73,4.15,2.71,5.69-1.95,1.89-2.44,1.06-2.79.29-2.75.62-2.25,3.35-.54,5.73.3,2.37-1.71,1.86-.19.73.16.47.5,3.24.26,3.98,2.6.98,1.74,1.46.7,1.89-.64,1.27-.93,1.13-.52,1.06-.16.62.59-.29,1.86-1.06,1.35-.76,1.4-.22,2.12,1.68,3.32,3.44,4.37,5.39,4.72,8.21,4.38-2.63,5.14-.11,1.44.33,1.44.11,1.58-2.59,5.44-1.86,1.96-3.13,1.33-2.77.8-9.37-1.96Z"/>
      <path class="cls-7" d="M393.04,347.36l2.69,4.95.87.83,7.88,5.89-6.57,8.42-5.79-.04-4.33-1.2-2.67.81-1.68.88-3.39,4.51-10.06-1.76-3.02.79-7.19,8.08-4.41.4-1.71-2.79-1.71-1.14-3.75-1.32-2.53-.32-2.08.98-3.1-.02-2.29-5.92-.33-1.67.47-5.79,4.66-.16,2.99.66,2.78-1.23,1.6-2.73.11-5.79-1.38-4.97-.69-1.74v-1.99l.73-.93,6.12-1.15.15-4.19,12.29-.35,2.15.66,2.37,1.67,1,1.55.44,1.89.98,1.81,1.89,1.42,2.8.56,4.92-2.35,3.65,1.44.98,1.73,1.42.58,2.73-.97Z"/>
      <path class="cls-7" d="M700.92,85.2l7.19,5.3-3.42.81-3.47-1.07-2.04.41-1.13.75-.11,1.09-1.57,3.45-6.57-4.6-.55-7-3.53-3.34.76-2.92-.04-1.71,2.73-2.26,3.87.93,7.87,10.16Z"/>
      <path class="cls-1" d="M622.4,92.58l-1.6-9.44.22-3.9,7.99-10.2.07.02,5.89,6.26,10.15,6.98-1.2,2.27,1.6,3.14-3.86.19-3.82,4.87-1.65,1.73-.62.26-.84-1.2-1.2-3.82-1.2-1.29-1.64-.16-2.8,3.33-1.38,1.29-.87,1.07-3.22-1.41Z"/>
      <path class="cls-5" d="M614.09,95.22l8.3-2.63,3.22,1.41.87-1.07,1.38-1.29,2.8-3.33,1.64.16,1.2,1.29,1.2,3.82.84,1.2.62-.26,1.65-1.73,2.59,8.01-.26,1.89-2.7,7.57-7.55-1.16-1.09.99-1.57,1.1-1.42,2-.33.81.33.86-.36,1.23-.04,1.09-1.46,3.49-3.03-4.46-4.88-7.58-4.26-6.63,2.29-6.75Z"/>
      <path class="cls-8" d="M708.1,90.51l4.48,7.36-1.86,1.16-1.53,1.62-3.68,2.41-3.95,1.8-1.49.31-2.29.09.8-2.5-.8-4.7-1.42-2.11,1.57-3.45.11-1.09,1.13-.75,2.04-.41,3.47,1.07,3.42-.81Z"/>
      <path class="cls-2" d="M656.97,88.43l5.12-3.2,2.27-3.53,3.06-1.27,8.34-8.27,6.53.71,1.86-1.97,1.64.46,3.39,2.77-2.73,2.26.04,1.71-.76,2.92,3.53,3.34.55,7-6.23-.38-1.82,1.88-1.02,1.29-.58,1.97.44,1.36.15,1.06.95,2.43-4.33,5.21-7.22-10.31-3.13-2.66-10.02-4.76Z"/>
      <path class="cls-6" d="M656.97,88.43l10.02,4.76,3.13,2.66-2.95,5.51-.58.49-1.64-.05-1.02.11-3.22,2.15-4.3-2.89-.69-3.29-2.66-2.33-1.42-2.74-.15-.66-.25-2.76,3.2.63,2.53-1.59Z"/>
      <path class="cls-1" d="M689.8,91.34l-.17,2.69-3,3.84-1.78.57-3.17,2.51-.95-2.43-.15-1.06-.44-1.36.58-1.97,1.02-1.29,1.82-1.88,6.23.38Z"/>
      <path class="cls-7" d="M323.24,294.42l-1.64,5.42-3.69,5.5-.62,4.43.84.16,2.48.96,1,.77.15.81-.36,1.16.51,1.98.51,2.77,3.2,6.45-.07,1.57-.58,2.1-.04,1.53,1.06,3.08-4.81,2.31h-1.94l-9-3.15-1.57-.99-1.51-.47-1.68.49-1.13,1.81-4.59,2.87-3.35-3.86-1.02-2.8-4.86-4.82-2.19-6.69.87-10.64-.15-2.86-.87-3.8.76-1.55.73-1.06.69-.51.84-.79.62.06,2.27-1.72,3.39,2.51,7.07-.19,3.8-2.17,1.35-1.42.91-1.59,3.46-1.95,2-.07,1.31.64,2.19,1.83,3.65,1.91Z"/>
      <path class="cls-3" d="M290.53,324.49l-1.49,2.43-.18,1.55-.51.7-1.49-.44-4.37-1.92-.51-.93.11-1.91-.29-1.55-.76-1.21-.85-.84,1.09-7.59-.36-3.86-1.38-5.81-4.88-6.01.66-4.55-.15-3.14,1.49-1.1,4.97-.85,5.65,1.16,6.86,6.32-2.27,1.72-.62-.06-.84.79-.69.51-.73,1.06-.76,1.55.87,3.8.15,2.86-.87,10.64,2.19,6.69Z"/>
      <path class="cls-5" d="M409.26,262.25l-1.71-3.31-.4-1.37-2.19-2.13-1.68-.77-.8-1.1-1.46-2.58-.69-.8-.78-2.46.15-1.71,1.14-2.76,3.17-5.36,4.22-2.81,2.66-3.2,4.16,5.44.87,1.96,5.75,4.31,2.91,3.58,2.02,3.06,1.93,4.36v1.8l-.8,1.2-1.97,1.34-.81.37-2.84-.98-1.86-1.16-.98-.49-.95.12-.66,1.11-.07.72.36.93.66.77.91.79,3.13,1.5-8.23,2.2-5.18-2.55Z"/>
      <path class="cls-8" d="M437.4,186.51v10.85l-.84,1.46-.8,2.38-.25,1.3.62,2.3-.04.42-.36.74.15,1.29.73,4.18.29,2.6-1.78,12.84-2.91,3.38-6.46,1.25-14.83.39-.55-1.33,1.71-.19.78-.26.84-.52.76-.75.58-.89.36-1.13.4-2.86.04-5.18.33-1.65.55-.95.62-.1.69.06-.11-.55-1.27-1.49-3.28-1.89-4.64-4.55,1.46-3.7-.66-1.85.76-1.96,1.82-3.5.74-2.07.29-7.92,1.97-3.63,1.6-1.75,1.89-1.01,2.91-.1,5.44,3.68,3.5-.82,6.96,3.49Z"/>
      <path class="cls-6" d="M409.26,262.25l-1.02,4.11-1.06.64-2.29.63.29,3.28-4.12,1.07-10.5,3.48-2.33.31-3.4-.98-.18-1.76-1.13-2.2-.36-2.48-.44-1.97-.07-1.35,1.09-1.02.98-1.69.66-1.9-1.13-6.81,2.78.81.33.04.36-.03,1.71-.89.58-.43.98-1,.62-.8-.04-1.83-.95-2.99-3.2-5.32-3.36-4.11-.91-.21-.95.26-.8.48-.44-.1.11-.66,1.49-1.52,2.73-1.34.92-.69,1.06-1-3.04-5.68,4.35,2.63,6.26-.71,7.66,3.02,7.83-1,.55,1.33-2.66,3.2-4.22,2.81-3.17,5.36-1.14,2.76-.15,1.71.78,2.46.69.8,1.46,2.58.8,1.1,1.68.77,2.19,2.13.4,1.37,1.71,3.31Z"/>
      <path class="cls-1" d="M386.62,206.63l-9.32-8.76.07-6.47,3.35-3.17.91-1.59.33-1.89,2.29-3.58,2-1.38,6.79,4.33,3.28,5.83,10.28,16.8-6.68,9.19-3.64,1.5-1.31-3.94-.73-1.49-2.8-3.79-4.82-1.58Z"/>
      <path class="cls-8" d="M377.41,227.01l.4-4.69.58-2.29,8.23-13.39,4.82,1.58,2.8,3.79.73,1.49,1.31,3.94.33,4.99-.22,1.28-1.53,4.83-6.26.71-4.35-2.63-6.85.41Z"/>
      <path class="cls-6" d="M521.4,295.83l-3.54-1.27-.91-.75-.18-1.57-1.06-4.21,1.86-.21,1.07-.43,1.42-.1,1.68-.58,3.35-.44.58.61.44.77-4.7,8.17Z"/>
      <path class="cls-7" d="M572.32,147.74l1.27-2.04-.51-2.49.44-1.42,3.06-1.93,6.77,8.19,2.56,5.33.33,1.27v.96l-.25.65.07,2.05-.25.89.58.83.73.66,1.38.65.44.67-.4,1.89-4.53.73-4.41-4.39-7.28-12.5Z"/>
      <path class="cls-8" d="M576.04,125.4l1.68.81,5.17,4.11,5.77,7.77,3.5,2.19,1.89.45,1.78-.5,1.17-.96.69-1.31,3.29-3.59,5.14-3.25-.18,6.98,2.26,3.07-2.37,10.34-.04,2.14-.87,1.26-.87,1.09-7.37,4.65-1.82-1.11-6.3,4.36.4-1.89-.44-.67-1.38-.65-.73-.66-.58-.83.25-.89-.07-2.05.25-.65v-.96l-.33-1.27-2.56-5.33-6.77-8.19-3.24-4.09-.76-.4-1.29-.4-3.42.5,3.11-4.17,2.77-1.85,2.29-4.04Z"/>
      <path class="cls-1" d="M562.33,205.26l-3.9-1.37-8.83.64-4.44-3.35,6.34-7.72.73-2.16,1.09-2.74.4-4.71.04-3.9-1.27-2.5-1.68-.86-4.41-.7-2.27-2.68-.66-1.82.73-1.94,20.75,1.45,3.57.78,4.27,2.1,1.49,3.42.66.84.4,1.17-2.88,6.22-6.6,7.74-2.62,4.06-.91,8.04Z"/>
      <path class="cls-3" d="M514.06,199.94l1.27-5.32-.66-5.15-1.71-8.55-1.6-3.68-2.04-1.78-1.82-.2-5.07-3.05-1.42-4.12-.66-3.1.36-3.07-.22-.89-1.09-.82-3.31-.96-1.68.06-1.24.21-.76-.29-.67-.71-.69-1.9-.76-1.43-2.48-3.1-4.22-1.97-5.73-4.51-3.82-.98-3.28-2.34-3.68-1.67-1.6-2.37-1.69-2-.8-4.07,5.66-.95,1.13.69,3.02,2.98,1.02.19,1.46-.52.8-.59,4.09-1.91,21.68-7.34,9.15.63,1.49,4.83.47,2.25.04.74,2.15,1.95,19.51,11.61.36,1.16,2.73.9,3.35,1.62,4.67,5.13-2.38,2.13.44.73,1.4,1.2v.4l-.34,1.02.41,1.74-.73,2.49-1.03,1.58.66,2.6-.73,1.94.66,1.82,2.27,2.68,4.41.7,1.68.86,1.27,2.5-.04,3.9-.4,4.71-1.09,2.74-.73,2.16-6.34,7.72-7.48.14-10.36-3.45-4.95-.07-2.55.77-1.32.88-1.31,1.86-3.13-1.38Z"/>
      <path class="cls-1" d="M611.98,171.41l-4.24-1.34-2.04-1.26-1.46-3.79-.29-.9-1.57-1.18-5.73-2.28,7.37-4.65.87-1.09.87-1.26.04-2.14,9.41,1.32,1.13,4.77.18,3,1.89,4.25.33,1.75.07,1.03-2.26,2.44-.76.53-1.93.7-1.89.11Z"/>
      <path class="cls-8" d="M545.78,155.55l11.03-6.7,4.16-1.38,4.15.47,2.91-1.28,4.27,1.09,7.28,12.5-1.6,7.89-.8,1.87-.58,2.35-3.82,1.42-4.27-2.1-3.57-.78-20.75-1.45-.66-2.6,1.03-1.58.73-2.49-.41-1.74.34-1.02v-.4l-1.4-1.2-.44-.73,2.38-2.13Z"/>
      <path class="cls-5" d="M625.32,147.5l-3.33-.9-3.86,2.08-.98,1.11-1.93,3.02-9.41-1.32,2.37-10.34,5.66,1.58,4.59-4.2,1.71-2.71,1.02-2.42,2.96-5.76,4.48,7.5-.22,6.59-3.06,5.76Z"/>
      <path class="cls-3" d="M645.11,82.3l2.37,1.62,9.49,4.51-2.53,1.59-3.2-.63.25,2.76.15.66,1.42,2.74,2.66,2.33.69,3.29,4.3,2.89-.66,2.04.44.69.69.7-.07.83-.29.86-.25,1.06-.26,2.1-.25.95-.76.91-1.09.85-2.8.79-2.66-.14-4.82-1.08-5.75-3.4-4.7-.97,2.7-7.57.26-1.89-2.59-8.01,3.82-4.87,3.86-.19-1.6-3.14,1.2-2.27Z"/>
      <path class="cls-3" d="M606.8,128.85l.55-4.92,1.2-1.52,1.76-1.64,2.19-1.03,2.77-1.81,5.68-1.75,3.03,4.46-1.47,1.27,1.61,5.73-2.96,5.76-1.02,2.42-1.71,2.71-4.59,4.2-5.66-1.58-2.26-3.07.18-6.98.69-2.26Z"/>
      <path class="cls-3" d="M437.87,393.73l1.94.07.4.55,3.02,6.57,3.2,2.77,2.33,3.29,2.29,4.38-.18,2.25-1.02,1.63-1.71.22-.87.6-.76,1.09-.76,2.42-.66,1.35-1.35,1.14-1.02,1.12-1.06.64-.58.74-.69.24-.62.44-.59.1-2.04.03-4.3-2.11-4.26-.81-3.44-.14-4.26,2.31-1.2,1.39-.76,1.18-.33.73-1.13.78-1.89.67-6.53.61-7.47-2.49-4.05-1.63-4.41-8.2.76-6.73,1.02-1.9,4.33-6.18,2.16-2.23,2.73-1.36,4.3.62,5.51.84,7.03-.45,3.61.29,3.07-.29,1.46-.4,8.78-6.13Z"/>
      <path class="cls-4" d="M397.92,367.45l1.13,4.27,3.11,4.72.76,1.73.29,1.67,7.9,8.65,1.6,2.23.7,1.65-.51,1.49-.44.64-.38.63-.58.53-.73.33-1.68,1.09-.69,2.8-4.3-.62-2.73,1.36-2.16,2.23-4.33,6.18-1.02,1.9-.76,6.73-3.06-5.42-1.06-5.87-4.75-5.62-4.41-4.96-1.06-2.11-1.09-2.91,1.93-10.02.8-2.59-.36-5.75,3.39-4.51,1.68-.88,2.67-.81,4.33,1.2,5.79.04Z"/>
      <path class="cls-3" d="M281.9,364.43l5.35-1.13,2.95,2.65,2.26,1.22,1.13.38,2.23.42,4.77,1.67,4.52.84,1.31.59,1.54.88.69,2.72-.15,2.98-3.22,9.22-1.46,2.88-2.66,2.37-2.73-4.32-1.17-1.4-2.37-1.45-4.86-.22-5.35-1.94-1.49-5.64-.04-2.46-.84-2.45-3-4.87,2.56-2.95Z"/>
      <path class="cls-7" d="M287.26,363.3l9.59-1.65,6.26-2.29,3.75-3.03,4.05-1.28,25.41,25.14,6.23,5.11-7.76,18.02-.26,3.57-2.45,4.95-1.68,2.28-3.75.78-5.39-2.49.8-1.73-.15-1.14.15-1.32-.51-1.58-.44-1.04-2.49-.82-2.95-1.94-7.39-2.53-2.2-2.11-4.92-6.06,2.66-2.37,1.46-2.88,3.22-9.22.15-2.98-.69-2.72-1.54-.88-1.31-.59-4.52-.84-4.77-1.67-2.23-.42-1.13-.38-2.26-1.22-2.95-2.65Z"/>
      <path class="cls-6" d="M455.63,339.43l-.47-3.5,1.02-2.14-.69-1.37-1.17-1.73-2.27-2.71-2.55-1.79-2.15-1.03-7.03-5.87-.11-2.62,4.01-2.16.44-1.03.07-.78.55-.37,1.49.08,3.13,2.9,1.09.14.62-1.57-.36-1.71.07-1.22.25-.92.74-.68,1.42-.75,5.03-.37,2.37.44,1.75.56,1.86.94.91,2.33,3.91,3.27-2.08,6.17-.22,5.7-.62,2.63,2.44,2.68-1.24,3.24-1.82,1.43-.96.52-.58-.06-.33-.78-2.48-1.31-6.05,3.45Z"/>
    </g>
  </g>
</svg>